<?xml version="1.0" encoding="UTF-8" standalone="no"?>
<!DOCTYPE svg PUBLIC "-//W3C//DTD SVG 1.1//EN" "http://www.w3.org/Graphics/SVG/1.1/DTD/svg11.dtd">
<svg width="100%" height="100%" viewBox="0 0 1311 543" version="1.1" xmlns="http://www.w3.org/2000/svg" xmlns:xlink="http://www.w3.org/1999/xlink" xml:space="preserve" xmlns:serif="http://www.serif.com/" style="fill-rule:evenodd;clip-rule:evenodd;stroke-linejoin:round;stroke-miterlimit:2;">
    <g transform="matrix(1,0,0,1,0,-95.287334)">
        <g transform="matrix(1,0,0,1,-264.038298,95.287334)">
            <path d="M408.5,0C418.773,4.793 428.94,9.867 439,15.22C519.893,58.267 561.347,80.323 563.36,81.39C575.153,87.63 587.193,94.267 599.48,101.3C600.625,101.957 601.374,103.137 601.48,104.45C601.813,108.503 601.987,110.937 602,111.75C602.5,142.99 602.79,176.72 602.87,212.94C602.871,213.428 603.135,213.877 603.56,214.11L614.23,219.95C614.376,220.03 614.511,220.131 614.63,220.25C616.237,221.89 617.173,223.747 617.44,225.82C618.08,230.733 618.403,236.127 618.41,242C618.45,274.92 618.343,301.073 618.09,320.46C618.01,326.807 617.73,331.273 617.25,333.86C617.191,334.186 617.038,334.486 616.81,334.72C615.49,336.09 614.34,337.26 612.49,338.47C605.743,342.87 602.063,345.263 601.45,345.65C601.425,345.666 601.401,345.682 601.377,345.699C600.749,346.15 600.606,347.042 601.06,347.675C601.076,347.697 601.093,347.719 601.11,347.74C603.04,350.12 608.59,352.49 610.6,353.75C610.878,353.929 611.121,354.152 611.32,354.41C612.54,356.01 613.257,357.727 613.47,359.56C614.077,364.76 614.383,370.577 614.39,377.01C614.41,391.243 614.42,421.723 614.42,468.45C614.42,469.398 613.901,470.274 613.07,470.73C573.997,492.157 532.117,514.713 487.43,538.4C484.557,539.92 481.887,541.22 479.42,542.3C478.491,542.7 477.433,542.69 476.51,542.27C469.53,539.063 461.17,534.837 451.43,529.59C423.523,514.557 364.397,482.593 274.05,433.7C270.917,432.007 268.053,430.107 265.46,428C265.18,427.771 265.013,427.431 265,427.07C264.73,420.58 264.32,414.24 264.27,407.64C264.05,379.747 263.987,349.88 264.08,318.04C264.08,317.717 264.189,317.403 264.39,317.15C268.62,311.78 275.03,308.87 281.58,306.47C281.744,306.412 281.854,306.257 281.854,306.083C281.854,305.978 281.813,305.876 281.74,305.8L274.48,297.93C274.211,297.641 274.06,297.259 274.06,296.86L274.06,187.68C274.059,187.527 274.14,187.388 274.27,187.32L287.93,179.84C288.201,179.691 288.371,179.405 288.371,179.095C288.371,178.836 288.252,178.591 288.05,178.43L284.02,175.28C283.681,175.005 283.468,174.604 283.43,174.17C283.123,170.257 282.923,165.367 282.83,159.5C282.277,125.94 281.983,96 281.95,69.68C281.95,69.371 282.064,69.072 282.27,68.84C285.74,64.96 289.16,62.49 294.99,59.26C318.137,46.413 351.767,28.523 395.88,5.59C399.5,3.71 404,1.96 408,0L408.5,0ZM301.78,68.72C346.05,93.35 392.83,118.51 449.46,148.53C461.953,155.157 471.257,159.957 477.37,162.93C477.616,163.05 477.906,163.054 478.16,162.94C482.48,160.96 487.993,158.207 494.7,154.68C525.12,138.687 550.34,125.07 570.36,113.83C576.053,110.637 580.577,108.047 583.93,106.06C584.059,105.985 584.139,105.846 584.139,105.697C584.139,105.552 584.063,105.416 583.94,105.34C578.22,101.727 571.887,98.057 564.94,94.33C521.647,71.11 469.57,43.327 408.71,10.98C408.448,10.842 408.132,10.846 407.87,10.99C371.03,30.703 339.647,47.36 313.72,60.96C309.393,63.22 305.403,65.557 301.75,67.97C301.628,68.052 301.554,68.189 301.554,68.336C301.554,68.495 301.641,68.642 301.78,68.72ZM293.18,77.61L293.18,98.72C293.179,98.912 293.282,99.091 293.45,99.19L309.98,108.73C310.069,108.781 310.169,108.807 310.272,108.807C310.579,108.807 310.838,108.567 310.86,108.26C311.1,104.71 312.19,100.65 315.56,99.38C315.882,99.258 316.239,99.261 316.56,99.39C322.413,101.737 327.843,104.48 332.85,107.62C335.877,109.513 338.067,111.81 339.42,114.51C339.493,114.656 339.544,114.814 339.57,114.98L340.59,121.92C340.803,123.39 341.706,124.676 343.02,125.38L417.42,165.38C417.462,165.401 417.508,165.412 417.556,165.412C417.699,165.412 417.823,165.31 417.85,165.17L419,158.62C419.197,157.507 420.224,156.72 421.35,156.82C423.017,156.967 424.763,157.43 426.59,158.21C431.317,160.217 436.083,162.62 440.89,165.42C447.41,169.21 446.65,174.3 447.43,180.82C447.461,181.086 447.612,181.325 447.84,181.47C452.947,184.67 458.453,187.943 464.36,191.29C466.41,192.44 468.22,193.05 470.66,194.08C470.746,194.115 470.838,194.134 470.931,194.134C471.242,194.134 471.519,193.928 471.61,193.63C471.863,192.843 471.997,191.967 472.01,191C472.077,185.253 471.993,179.363 471.76,173.33C471.747,173.026 471.576,172.752 471.31,172.61L293.86,77.2C293.792,77.163 293.717,77.144 293.64,77.144C293.388,77.144 293.18,77.352 293.18,77.604C293.18,77.606 293.18,77.608 293.18,77.61ZM339.56,135.48L339.56,150.04C339.56,150.863 339.1,151.62 338.37,152C335.48,153.51 334.04,152.45 330.71,151.04C325.88,148.99 311.98,142.2 311.54,136.96C311.113,131.88 310.977,126.573 311.13,121.04C311.143,120.661 310.936,120.306 310.6,120.13L294.06,111.24C294.019,111.218 293.975,111.201 293.93,111.19C293.622,111.111 293.305,111.296 293.227,111.599C293.216,111.645 293.21,111.692 293.21,111.74L293.21,168.84C293.21,168.994 293.294,169.137 293.43,169.21L470.22,264.26C470.336,264.321 470.465,264.354 470.595,264.354C470.976,264.354 471.306,264.083 471.38,263.71C471.753,261.737 471.96,259.667 472,257.5C472.287,241.58 472.257,225.72 471.91,209.92C471.857,207.387 471.2,205.697 469.94,204.85C466.247,202.383 459.057,198.613 448.37,193.54C448.31,193.511 448.243,193.496 448.176,193.496C447.951,193.496 447.758,193.666 447.73,193.89C447.36,196.7 447.47,210.93 441.31,208.71C433.79,206.01 426.6,202.767 419.74,198.98C419.335,198.757 419.071,198.341 419.04,197.88L417.56,177.55C417.535,177.227 417.35,176.94 417.07,176.79L339.88,135.29C339.849,135.274 339.815,135.266 339.78,135.266C339.661,135.266 339.563,135.362 339.56,135.48ZM321.92,111.99C321.852,111.954 321.777,111.935 321.7,111.935C321.442,111.935 321.23,112.147 321.23,112.405C321.23,112.407 321.23,112.408 321.23,112.41L321.23,134.85C321.23,135.02 321.322,135.177 321.47,135.26L329.35,139.8C329.42,139.839 329.5,139.86 329.58,139.86C329.834,139.86 330.045,139.654 330.05,139.4L330.05,116.64C330.048,116.468 329.952,116.31 329.8,116.23L321.92,111.99ZM482.44,193.45C482.441,193.713 482.657,193.929 482.92,193.929C483,193.929 483.079,193.909 483.15,193.87L592.2,135.44C592.357,135.355 592.453,135.188 592.45,135.01L592.45,115.08C592.449,114.817 592.233,114.601 591.97,114.601C591.89,114.601 591.811,114.621 591.74,114.66L482.69,173.09C482.533,173.175 482.437,173.342 482.44,173.52L482.44,193.45ZM525.2,183.15C517.627,187.237 503.687,194.76 483.38,205.72C482.954,205.951 482.688,206.398 482.69,206.88L482.69,264.72C482.69,264.721 482.69,264.723 482.69,264.724C482.69,265.031 482.943,265.284 483.25,265.284C483.341,265.284 483.43,265.262 483.51,265.22C488.543,262.553 510.567,250.707 549.58,229.68C557.153,225.593 571.093,218.067 591.4,207.1C591.823,206.87 592.088,206.428 592.09,205.95L592.09,148.11C592.09,148.109 592.09,148.107 592.09,148.106C592.09,147.799 591.837,147.546 591.53,147.546C591.439,147.546 591.35,147.568 591.27,147.61C586.237,150.277 564.213,162.123 525.2,183.15ZM434.12,195.9C434.313,196.007 434.53,196.063 434.75,196.063C435.457,196.063 436.041,195.487 436.05,194.78L436.29,173.53C436.291,173.411 436.223,173.297 436.11,173.23L428.59,169.08C428.581,169.075 428.572,169.071 428.562,169.069C428.493,169.049 428.422,169.086 428.404,169.149C428.401,169.159 428.4,169.169 428.4,169.18L428.14,191.51C428.135,192.177 428.497,192.793 429.08,193.11L434.12,195.9ZM293.07,192.05C338.05,216.44 392.49,245.94 468.12,286.67C471.36,288.41 474.063,289.603 476.23,290.25C476.557,290.348 476.907,290.351 477.24,290.26C480.807,289.247 483.823,288.09 486.29,286.79C524.337,266.703 561.72,246.337 598.44,225.69C598.709,225.54 598.876,225.255 598.876,224.948C598.876,224.636 598.704,224.348 598.43,224.2L591.41,220.43C591.016,220.218 590.545,220.21 590.15,220.41C562.09,234.44 534.32,249.74 506.2,264.89C497.1,269.8 487.58,274.45 478.14,279.23C477.445,279.581 476.619,279.569 475.93,279.2L304.63,187.11C303.11,186.289 301.308,186.155 299.68,186.74L293.29,189.06C292.64,189.293 292.203,189.913 292.203,190.604C292.203,191.208 292.537,191.765 293.07,192.05ZM415.78,291.89C415.947,289.75 416.247,287.623 416.68,285.51C417.02,283.837 417.95,282.857 419.47,282.57C419.782,282.511 420.104,282.55 420.39,282.68C427.93,286.173 434.663,289.86 440.59,293.74C444.91,296.57 444.6,300.51 445.31,305.59C445.488,306.855 446.202,307.987 447.27,308.7C454.29,313.387 462.043,317.843 470.53,322.07C470.652,322.131 470.787,322.163 470.923,322.163C471.377,322.163 471.76,321.812 471.8,321.36C472.373,315.293 472.36,308.85 471.76,302.03C471.648,300.771 470.91,299.653 469.8,299.06L284.66,199.52C284.631,199.504 284.601,199.492 284.569,199.484C284.362,199.431 284.147,199.563 284.093,199.775C284.085,199.806 284.081,199.838 284.08,199.87L284.08,222.21C284.081,222.517 284.251,222.799 284.52,222.94L301.85,232.26C301.914,232.293 301.985,232.31 302.057,232.31C302.274,232.31 302.462,232.154 302.5,231.94L303.94,223.73C303.99,223.441 304.176,223.192 304.44,223.06C308.99,220.83 324.08,229.83 328.66,232.92C329.035,233.177 329.35,233.515 329.58,233.91L330.89,236.18C331.055,236.471 331.164,236.793 331.21,237.13C331.41,238.597 331.883,241.513 332.63,245.88C332.857,247.24 333.49,248.2 334.53,248.76C368.263,267 395.163,281.477 415.23,292.19C415.253,292.203 415.277,292.213 415.303,292.221C415.497,292.279 415.706,292.162 415.766,291.962C415.773,291.939 415.778,291.914 415.78,291.89ZM482.29,322.92C482.29,322.92 482.29,322.921 482.29,322.921C482.29,323.102 482.439,323.251 482.62,323.251C482.676,323.251 482.731,323.237 482.78,323.21L607.02,255.24C607.125,255.182 607.191,255.07 607.19,254.95L607.19,234.06C607.19,234.06 607.19,234.059 607.19,234.059C607.19,233.878 607.041,233.729 606.86,233.729C606.804,233.729 606.749,233.743 606.7,233.77L482.46,300.35C482.355,300.408 482.289,300.52 482.29,300.64L482.29,322.92ZM284.58,234.35C284.247,252.73 284.247,271.53 284.58,290.75C284.61,292.95 285.22,294.66 286.93,295.92C288.21,296.867 291.017,298.537 295.35,300.93C319.35,314.157 371.73,342.567 452.49,386.16C458.14,389.2 465.69,392.85 470.68,395.35C470.744,395.383 470.815,395.4 470.887,395.4C471.104,395.4 471.292,395.244 471.33,395.03C471.737,392.983 471.947,390.89 471.96,388.75C472.06,372.337 471.993,354.237 471.76,334.45C471.754,334.339 471.693,334.24 471.6,334.19L445.87,320.36C445.836,320.342 445.8,320.328 445.763,320.319C445.523,320.261 445.278,320.406 445.222,320.641C445.212,320.68 445.208,320.72 445.21,320.76C445.277,324.333 445.23,327.587 445.07,330.52C444.85,334.35 443.84,337.5 439.55,337.35C439.234,337.337 438.927,337.255 438.65,337.11C436.59,336.057 431.88,333.78 424.52,330.28C422.853,329.487 420.257,327.643 416.73,324.75C416.432,324.503 416.256,324.141 416.25,323.76L415.72,304.69C415.708,304.239 415.456,303.827 415.06,303.61L333.01,259.5C332.966,259.477 332.917,259.465 332.867,259.465C332.714,259.465 332.582,259.578 332.56,259.73C331.527,267.317 330.873,271.707 330.6,272.9C329.88,275.973 327.963,276.883 324.85,275.63C320.817,274.01 315.29,271.21 308.27,267.23C304.797,265.257 303.09,262.187 303.15,258.02C303.157,257.827 303.117,253.46 303.03,244.92C303.031,244.549 302.828,244.202 302.5,244.01L285.17,234.01C285.141,233.993 285.109,233.979 285.077,233.97C284.871,233.914 284.653,234.041 284.595,234.252C284.586,234.284 284.581,234.317 284.58,234.35ZM319.68,263.55C319.88,263.657 320.103,263.713 320.33,263.713C321.084,263.713 321.706,263.094 321.71,262.34L321.71,239.81C321.71,239.681 321.634,239.559 321.51,239.49L313.49,235.18C313.481,235.176 313.472,235.172 313.463,235.17C313.389,235.15 313.313,235.19 313.294,235.259C313.291,235.269 313.29,235.28 313.29,235.29L313.29,258.97C313.29,259.677 313.679,260.328 314.3,260.66L319.68,263.55ZM606.9,267.81C606.897,267.669 606.781,267.555 606.64,267.555C606.594,267.555 606.55,267.567 606.51,267.59L483.09,334.22C482.912,334.318 482.8,334.506 482.8,334.71C482.44,362.103 482.4,380.277 482.68,389.23C482.813,393.543 482.883,395.823 482.89,396.07C482.891,396.245 483.035,396.388 483.21,396.388C483.255,396.388 483.299,396.378 483.34,396.36C486.893,394.693 490.673,392.787 494.68,390.64C536.793,368.113 573.63,348.17 605.19,330.81C606.011,330.359 606.56,329.529 606.66,328.59C606.927,326.157 607.077,324.12 607.11,322.48C607.483,305.273 607.413,287.05 606.9,267.81ZM425.77,296.17C425.749,296.158 425.725,296.151 425.7,296.151C425.624,296.151 425.561,296.214 425.56,296.29L425.56,319.41C425.561,320.265 426.031,321.051 426.78,321.45L432.62,324.59C432.844,324.712 433.095,324.775 433.35,324.775C434.189,324.775 434.88,324.085 434.88,323.245C434.88,323.244 434.88,323.242 434.88,323.24L434.88,301.28C434.88,301.151 434.804,301.029 434.68,300.96L425.77,296.17ZM595.37,358.19L587.24,353.5C586.823,353.258 586.31,353.25 585.89,353.48C543.683,376.26 513.357,392.543 494.91,402.33C489.44,405.23 483.89,407.79 478.74,410.28C478.435,410.423 478.093,410.458 477.77,410.38C477.143,410.22 475.957,409.77 474.21,409.03C471.35,407.83 464.573,404.36 453.88,398.62C368.36,352.747 314.997,324.07 293.79,312.59C293.372,312.366 292.871,312.366 292.46,312.59L282.92,317.7C282.725,317.807 282.603,318.012 282.603,318.235C282.603,318.458 282.725,318.663 282.92,318.77L477.49,423.38C477.801,423.548 478.182,423.545 478.5,423.37C517.1,402.503 552.757,383.08 585.47,365.1C588.3,363.54 592.78,360.36 595.32,359.22C595.527,359.126 595.66,358.919 595.66,358.692C595.66,358.485 595.549,358.294 595.37,358.19ZM274.52,326.87C273.873,333.937 273.937,341.093 274.71,348.34C274.748,348.694 274.938,349.013 275.23,349.21C281.037,353.103 286.64,356.173 292.04,358.42C292.18,358.477 292.33,358.507 292.482,358.507C292.971,358.507 293.411,358.199 293.58,357.74L295.58,352.23C295.613,352.15 295.657,352.076 295.71,352.01C296.623,350.857 297.817,350.503 299.29,350.95C306.63,353.17 313.883,356.547 321.05,361.08C321.417,361.316 321.717,361.643 321.92,362.03C323.82,365.65 323.88,369.61 324.59,375.16C324.64,375.53 324.863,375.854 325.19,376.03C356.457,392.81 382.41,406.693 403.05,417.68C405.72,419.1 410.05,420.96 413.29,422.27C413.355,422.297 413.421,422.319 413.489,422.339C414.517,422.634 415.607,422.026 415.903,420.992C415.922,420.926 415.938,420.858 415.95,420.79L416.56,417.31C416.593,417.126 416.668,416.955 416.78,416.81C418.207,415.023 419.867,414.443 421.76,415.07C427.413,416.943 434.14,420.557 441.94,425.91C442.323,426.174 442.649,426.514 442.9,426.91C445.22,430.62 445.36,435.5 445.72,439.7C445.744,440.006 445.922,440.277 446.19,440.42L470.33,453.4C470.389,453.431 470.451,453.457 470.516,453.476C471.036,453.63 471.59,453.333 471.743,452.817C471.762,452.753 471.775,452.687 471.78,452.62C472.367,446.34 472.363,440.207 471.77,434.22C471.626,432.796 470.782,431.531 469.52,430.85L275.32,326.44C275.287,326.422 275.253,326.408 275.218,326.397C274.934,326.311 274.629,326.477 274.541,326.766C274.531,326.8 274.524,326.835 274.52,326.87ZM274.84,361.85C274.573,364.003 274.407,366.47 274.34,369.25C273.98,384.577 274.007,400.013 274.42,415.56C274.473,417.667 274.877,419.483 275.63,421.01C275.794,421.337 276.043,421.611 276.35,421.8C284.523,426.88 296.87,433.897 313.39,442.85C370.79,473.957 414.41,497.577 444.25,513.71C452.04,517.92 461.83,522.88 470.55,527.46C470.577,527.475 470.605,527.487 470.634,527.497C470.935,527.602 471.27,527.437 471.376,527.131C471.386,527.101 471.394,527.071 471.4,527.04C471.76,525.033 471.947,523.02 471.96,521C472.067,503.747 471.997,485.61 471.75,466.59C471.751,466.38 471.636,466.185 471.45,466.08C463.463,461.48 455.84,457.367 448.58,453.74C448.247,453.567 447.277,453.17 445.67,452.55C445.632,452.535 445.592,452.523 445.552,452.514C445.144,452.426 444.735,452.693 444.646,453.106C444.638,453.144 444.633,453.182 444.63,453.22C444.483,455.953 444.217,460.227 443.83,466.04C443.61,469.47 440.58,469.32 438.11,468.34C431.23,465.613 424.803,462.307 418.83,458.42C416.83,457.12 416.15,455.24 415.92,453.04C415.307,447.367 414.917,441.68 414.75,435.98C414.744,435.726 414.602,435.496 414.38,435.38C388.147,421.167 363.097,407.823 339.23,395.35C335.16,393.23 330.12,390.95 324.91,388.41C324.779,388.346 324.634,388.312 324.488,388.312C323.985,388.312 323.563,388.708 323.53,389.21C323.103,395.377 322.843,398.803 322.75,399.49C322.35,402.56 320.94,405.48 317.42,404.11C310.173,401.29 303.577,397.957 297.63,394.11C296.26,393.22 295.05,391.69 294.9,390.32C294.233,384.253 293.81,378.007 293.63,371.58C293.623,371.387 293.517,371.212 293.35,371.12L275.48,361.52C275.455,361.506 275.43,361.495 275.403,361.486C275.178,361.413 274.933,361.542 274.858,361.772C274.85,361.797 274.844,361.823 274.84,361.85ZM313.03,392.29L313.03,369.32C313.031,368.115 312.385,366.996 311.34,366.39L307.07,363.93C306.775,363.759 306.441,363.669 306.1,363.669C305.041,363.669 304.17,364.54 304.17,365.599C304.17,365.599 304.17,365.6 304.17,365.6L304.17,387.44C304.17,387.496 304.2,387.549 304.25,387.58L312.72,392.47C312.751,392.487 312.785,392.495 312.82,392.495C312.934,392.495 313.027,392.403 313.03,392.29ZM603.46,367.81L482.85,432.44C482.554,432.601 482.369,432.913 482.37,433.25L482.37,452.71C482.37,452.711 482.37,452.713 482.37,452.714C482.37,453.515 483.029,454.174 483.83,454.174C484.078,454.174 484.323,454.111 484.54,453.99L602.35,389.05C602.422,389.017 602.487,388.966 602.54,388.9C603.453,387.887 603.96,386.667 604.06,385.24C604.46,379.533 604.417,373.81 603.93,368.07C603.918,367.903 603.778,367.772 603.611,367.772C603.558,367.772 603.506,367.785 603.46,367.81ZM483.32,528.4C490.133,524.987 495.323,522.317 498.89,520.39C531.59,502.77 558.097,488.433 578.41,477.38C588.137,472.087 594.28,468.653 596.84,467.08C600.153,465.04 601.98,463.893 602.32,463.64C602.634,463.405 602.876,463.09 603.02,462.73C603.667,461.137 604.013,459.307 604.06,457.24C604.48,438.367 604.427,419.64 603.9,401.06C603.89,400.837 603.704,400.659 603.48,400.659C603.41,400.659 603.342,400.677 603.28,400.71L482.94,466.55C482.749,466.648 482.629,466.845 482.63,467.06L482.63,527.97C482.631,528.233 482.847,528.448 483.11,528.448C483.183,528.448 483.255,528.432 483.32,528.4ZM425.23,441.76C425.223,447.393 425.223,450.443 425.23,450.91C425.233,451.385 425.494,451.822 425.91,452.05L433.44,456.1C433.576,456.172 433.728,456.209 433.882,456.209C434.38,456.209 434.798,455.817 434.83,455.32C435.097,450.6 435.233,446.16 435.24,442C435.247,436.367 435.25,433.317 435.25,432.85C435.245,432.373 434.98,431.936 434.56,431.71L427.03,427.66C426.894,427.589 426.742,427.551 426.589,427.551C426.087,427.551 425.667,427.949 425.64,428.45C425.373,433.163 425.237,437.6 425.23,441.76Z" style="fill-rule:nonzero;"/>
        </g>
        <g transform="matrix(1,0,0,1,-264.038298,95.287334)">
            <path d="M557.32,178.45C557.702,178.308 558.121,178.297 558.51,178.42C562.32,179.62 563.84,182.49 564.08,186.67C564.533,194.363 564.24,201.033 563.2,206.68C562.827,208.687 561.917,210.477 560.47,212.05C560.271,212.269 560.042,212.454 559.79,212.6C546.957,220.153 534.013,227.127 520.96,233.52C520.172,233.908 519.253,233.937 518.44,233.6C514.73,232.07 513.67,229.5 513.53,225.14C513.277,217.613 513.317,211.76 513.65,207.58C514.07,202.25 517.55,199.03 522.28,196.29C530.773,191.363 540.09,186.433 550.23,181.5C552.483,180.4 554.847,179.383 557.32,178.45ZM553.87,191.88C553.814,191.538 553.516,191.284 553.169,191.284C553.051,191.284 552.934,191.313 552.83,191.37L523.98,206.82C523.77,206.937 523.639,207.159 523.64,207.4L523.64,219.23C523.641,219.657 523.993,220.008 524.42,220.008C524.538,220.008 524.654,219.981 524.76,219.93C533.627,215.73 541.58,211.623 548.62,207.61C550.827,206.35 552.273,205.377 552.96,204.69C555.28,202.39 554.29,194.43 553.87,191.88Z" style="fill-rule:nonzero;"/>
        </g>
        <g transform="matrix(1,0,0,1,-264.038298,95.287334)">
            <path d="M522.91,326.97C526.25,324.497 529.773,322.253 533.48,320.24C544.573,314.213 553.38,309.52 559.9,306.16C563.007,304.56 565.943,303.56 568.71,303.16C569.927,302.986 571.13,303.576 571.73,304.64C572.76,306.46 573.44,308.49 573.74,310.9C574.6,317.92 574.413,325.623 573.18,334.01C573.04,334.935 572.498,335.752 571.7,336.24C559.093,343.973 545.857,351.387 531.99,358.48C530.39,359.3 528.627,359.91 526.7,360.31C526.371,360.376 526.035,360.362 525.72,360.27C523.26,359.543 521.94,357.883 521.76,355.29C521.207,347.237 521.217,339.237 521.79,331.29C521.897,329.837 522.08,328.667 522.34,327.78C522.438,327.456 522.638,327.171 522.91,326.97ZM532.39,347.57L561,331.05C562.016,330.464 562.707,329.444 562.87,328.29C563.45,324.23 563.463,320.213 562.91,316.24C562.904,316.202 562.896,316.164 562.884,316.127C562.771,315.783 562.4,315.591 562.061,315.702C562.022,315.714 561.985,315.73 561.95,315.75L532.2,331.69C531.875,331.861 531.671,332.2 531.67,332.57L531.67,347.15C531.67,347.151 531.67,347.153 531.67,347.154C531.67,347.418 531.887,347.634 532.15,347.634C532.234,347.634 532.317,347.612 532.39,347.57Z" style="fill-rule:nonzero;"/>
        </g>
        <g transform="matrix(1,0,0,1,-264.038298,95.287334)">
            <path d="M553.55,478.59C547.463,482.063 540.39,485.717 532.33,489.55C525.83,492.65 519.18,495.66 518.67,484.99C518.317,477.783 518.437,470.62 519.03,463.5C519.24,461.09 519.59,459.57 521.76,458.05C526.54,454.68 529.58,453.12 537.22,448.76C543.313,445.293 550.39,441.64 558.45,437.8C564.95,434.71 571.6,431.7 572.11,442.37C572.463,449.577 572.343,456.74 571.75,463.86C571.54,466.27 571.19,467.79 569.01,469.31C564.23,472.68 561.2,474.24 553.55,478.59ZM530.69,479.46L560.57,463.46C560.842,463.308 561.03,463.043 561.08,462.74C561.827,458.553 562.19,453.843 562.17,448.61C562.17,448.49 562.117,448.32 562.01,448.1C562.009,448.097 562.007,448.094 562.006,448.092C561.759,447.62 561.164,447.437 560.688,447.686C560.685,447.687 560.683,447.689 560.68,447.69L530.14,464.05C529.833,464.215 529.641,464.538 529.64,464.89L529.64,478.83C529.64,478.832 529.64,478.834 529.64,478.837C529.64,479.226 529.96,479.547 530.35,479.547C530.469,479.547 530.586,479.517 530.69,479.46Z" style="fill-rule:nonzero;"/>
        </g>
        <g transform="matrix(1,0,0,1,428.845159,-279.379502)">
            <path d="M299.11,699L293.02,699C291.427,698.96 290.033,698.57 288.84,697.83C288.579,697.668 288.42,697.38 288.42,697.07L288.42,614.96C288.42,614.625 288.695,614.35 289.03,614.35L298.3,614.35C298.607,614.35 298.86,614.603 298.86,614.91L298.86,645.11C298.862,645.41 299.11,645.656 299.41,645.656C299.538,645.656 299.661,645.611 299.76,645.53C307.327,639.09 315.98,636.74 325.72,638.48C331.08,639.44 335.353,641.85 338.54,645.71C342.58,650.6 344.29,655.73 344.51,662.9C345.003,678.713 345.27,690.223 345.31,697.43C345.31,697.721 345.071,697.96 344.78,697.96L334.67,697.96C334.668,697.96 334.667,697.96 334.665,697.96C334.336,697.957 334.067,697.688 334.07,697.365C334.07,697.363 334.07,697.362 334.07,697.36C334.19,684.867 334.073,673.35 333.72,662.81C333.433,654.15 329.223,649.043 321.09,647.49C319.417,647.17 316.997,647.237 313.83,647.69C307.83,648.55 303.13,652.73 300.73,658.13C299.91,659.977 299.443,663.3 299.33,668.1C299.077,678.393 299.003,688.693 299.11,699Z" style="fill-rule:nonzero;"/>
        </g>
        <g transform="matrix(1,0,0,1,428.845159,-279.379502)">
            <path d="M790.68,643.15C790.68,643.152 790.68,643.155 790.68,643.157C790.68,643.508 790.969,643.797 791.32,643.797C791.474,643.797 791.624,643.741 791.74,643.64C796.933,639.253 803.267,636.64 810.74,635.8C810.8,635.793 810.86,635.79 810.92,635.79C811.814,635.79 812.55,636.526 812.55,637.42L812.55,649.05C812.552,649.357 812.319,649.62 812.01,649.66C804.28,650.59 798.05,651.54 793.82,659.02C792.513,661.34 791.823,665.443 791.75,671.33C791.623,682.103 791.583,690.833 791.63,697.52C791.63,697.761 791.436,697.96 791.2,697.96L777.2,697.96C776.871,697.96 776.6,697.689 776.6,697.36L776.6,637.25C776.6,637.047 776.767,636.88 776.97,636.88L790.01,636.88C790.378,636.88 790.68,637.182 790.68,637.55L790.68,643.15Z" style="fill:rgb(206,31,35);fill-rule:nonzero;"/>
        </g>
        <g transform="matrix(1,0,0,1,428.845159,-279.379502)">
            <path d="M882,670.49L882,671.94C866.407,671.853 853.07,671.913 841.99,672.12C840.43,672.153 837.873,672.337 834.32,672.67C834.31,672.671 834.299,672.673 834.289,672.674C834.002,672.723 833.805,672.994 833.853,673.275C833.855,673.287 833.857,673.299 833.86,673.31C834.59,676.46 837.64,679.84 840.37,682.15C841.63,683.217 843.34,684.073 845.5,684.72C852.08,686.68 858.467,686.14 864.66,683.1C866,682.44 867.86,680.87 869,680.4C869.298,680.281 869.637,680.362 869.84,680.6L876.62,688.71C876.847,688.979 876.829,689.382 876.58,689.63C871.44,694.797 865.51,697.76 858.79,698.52C844.71,700.1 831.01,696.52 823.43,683.58C814.2,667.82 819.76,646.02 837.99,638.59C847.037,634.903 856.11,635.213 865.21,639.52C874.54,643.94 879.95,654.05 881.19,664.28C881.437,666.347 881.707,668.417 882,670.49ZM834.28,662.83L864.86,662.83C864.933,662.83 865.006,662.826 865.079,662.817C866.053,662.699 866.758,661.795 866.639,660.815C866.631,660.743 866.617,660.671 866.6,660.6C865.9,657.79 864.24,655.56 862.23,653.29C859.07,649.737 855.083,647.947 850.27,647.92C841.27,647.87 836.03,654.07 833.75,662.13C833.736,662.179 833.729,662.229 833.729,662.28C833.729,662.582 833.977,662.83 834.279,662.83C834.279,662.83 834.28,662.83 834.28,662.83Z" style="fill:rgb(206,31,35);fill-rule:nonzero;"/>
        </g>
        <g transform="matrix(1,0,0,1,428.845159,-279.379502)">
            <path d="M691.09,650.72L680.75,656.69C680.427,656.88 680.011,656.831 679.73,656.57L674.71,651.89C674.478,651.678 674.219,651.496 673.94,651.35C668.5,648.45 663.073,648.207 657.66,650.62C651.35,653.42 647.98,660.83 647.67,667.56C647.437,672.607 648.993,676.83 652.34,680.23C655.727,683.67 659.867,685.54 664.76,685.84C670.62,686.2 675.83,682.68 679.62,678.28C679.912,677.936 680.407,677.836 680.81,678.04C683.97,679.627 686.687,681.11 688.96,682.49C693.13,685.01 687.9,690.19 685.72,691.91C681.08,695.577 676.09,697.72 670.75,698.34C662.74,699.27 654.97,698.82 647.54,694.64C629.68,684.58 627.57,658.73 642.02,644.99C644.313,642.81 647.243,640.787 650.81,638.92C656.91,635.73 666.85,636.15 673.09,637.15C680.9,638.41 685.35,643.05 691.27,649.59C691.287,649.609 691.303,649.629 691.317,649.649C691.555,649.978 691.483,650.442 691.158,650.676C691.136,650.692 691.114,650.707 691.09,650.72Z" style="fill:rgb(206,31,35);fill-rule:nonzero;"/>
        </g>
        <g transform="matrix(1,0,0,1,428.845159,-279.379502)">
            <path d="M730.42,636.43C740.63,636.41 752.79,641.59 758.33,650.77C762.26,657.27 762.67,663.39 762.3,670.67C761.65,683.4 753.33,693.54 741.38,697.34C738.747,698.173 735.147,698.597 730.58,698.61C726.007,698.623 722.403,698.217 719.77,697.39C707.8,693.66 699.43,683.56 698.71,670.83C698.31,663.55 698.69,657.43 702.58,650.91C708.07,641.71 720.21,636.46 730.42,636.43ZM730.5,685.62C735.65,685.64 740.13,684.39 743.11,680.53C746.683,675.897 748.067,670.46 747.26,664.22C746.17,655.84 739.1,649.21 730.62,649.18C722.15,649.15 715.04,655.74 713.89,664.11C713.043,670.343 714.39,675.787 717.93,680.44C720.88,684.33 725.36,685.61 730.5,685.62Z" style="fill:rgb(206,31,35);fill-rule:nonzero;"/>
        </g>
        <g transform="matrix(1,0,0,1,428.845159,-279.379502)">
            <path d="M0,639.31L0,638.53C3.093,637.957 6.317,637.903 9.67,638.37C9.921,638.401 10.135,638.571 10.22,638.81L26.89,684.85C26.924,684.951 27.02,685.02 27.127,685.02C27.23,685.02 27.323,684.956 27.36,684.86L44.38,639.97C44.85,638.726 46.053,637.899 47.39,637.9L53.13,637.9C53.411,637.9 53.664,638.076 53.76,638.34L70.54,684.65C70.579,684.749 70.675,684.815 70.782,684.815C70.885,684.815 70.979,684.754 71.02,684.66L87.66,640.75C88.298,639.073 89.907,637.959 91.69,637.96L96.06,637.96C96.871,637.962 97.537,638.629 97.537,639.44C97.537,639.61 97.508,639.78 97.45,639.94L76.52,697.43C76.449,697.628 76.26,697.76 76.05,697.76L66.21,697.76C65.788,697.76 65.409,697.5 65.26,697.11C61.773,687.757 57.717,676.697 53.09,663.93C51.65,659.957 50.317,657.05 49.09,655.21C49.017,655.107 48.898,655.046 48.772,655.046C48.613,655.046 48.469,655.143 48.41,655.29L32.39,697.55C32.3,697.784 32.077,697.939 31.83,697.94L21.91,697.94C21.519,697.939 21.17,697.694 21.04,697.33L0,639.31Z" style="fill-rule:nonzero;"/>
        </g>
        <g transform="matrix(1,0,0,1,428.845159,-279.379502)">
            <path d="M205.7,647.98C198.85,647.58 187.27,651.79 186.83,660.52C186.237,672.02 185.923,684.393 185.89,697.64C185.89,697.816 185.746,697.96 185.57,697.96L175.58,697.96C175.229,697.96 174.94,697.667 174.94,697.31L174.94,638.07C174.94,638.067 174.94,638.064 174.94,638.06C174.945,637.907 175.071,637.785 175.219,637.789C175.223,637.79 175.226,637.79 175.23,637.79L184.16,638.36C184.315,638.369 184.44,638.49 184.45,638.64L185.04,646.86C185.049,647.051 185.209,647.202 185.4,647.202C185.503,647.202 185.602,647.158 185.67,647.08C190.65,641.547 197.07,638.457 204.93,637.81C204.932,637.81 204.934,637.81 204.936,637.81C205.8,637.745 206.564,638.398 206.629,639.257C206.629,639.261 206.63,639.266 206.63,639.27L207.16,646.51C207.162,646.541 207.163,646.572 207.163,646.603C207.163,647.36 206.54,647.983 205.783,647.983C205.755,647.983 205.728,647.982 205.7,647.98Z" style="fill-rule:nonzero;"/>
        </g>
        <g transform="matrix(1,0,0,1,428.845159,-279.379502)">
            <path d="M459.54,699L457.6,699C449.34,697.91 442.41,694.32 438.78,686.64C437.56,684.06 436.88,679.543 436.74,673.09C436.38,656.63 436.173,645.057 436.12,638.37C436.12,638.101 436.337,637.88 436.6,637.88L445.52,637.88C445.78,637.88 445.995,638.09 446,638.35C446.29,653.29 446.33,665.7 447.79,677.52C448.57,683.77 452.11,687.29 458.11,688.45C467.52,690.26 475.61,687.05 479.56,677.81C480.67,675.21 480.85,670.76 480.94,668.04C481.26,658.347 481.363,648.87 481.25,639.61C481.25,639.608 481.25,639.606 481.25,639.605C481.247,639.319 481.485,639.083 481.775,639.08C481.777,639.08 481.778,639.08 481.78,639.08L490.74,639.08C491.25,639.08 491.67,639.495 491.67,640L491.67,697.37C491.67,697.694 491.404,697.96 491.08,697.96L481.85,697.96C481.543,697.96 481.29,697.707 481.29,697.4L481.29,690.35C481.289,690.175 481.145,690.032 480.97,690.032C480.878,690.032 480.791,690.071 480.73,690.14C476.557,694.853 471.14,697.59 464.48,698.35C462.82,698.543 461.173,698.76 459.54,699Z" style="fill-rule:nonzero;"/>
        </g>
        <g transform="matrix(1,0,0,1,428.845159,-279.379502)">
            <path d="M552.25,642.76C552.657,642.966 552.845,643.45 552.68,643.87L549.98,651.01C549.85,651.35 549.522,651.576 549.158,651.576C549.035,651.576 548.913,651.55 548.8,651.5C539.6,647.34 524.35,643.21 518.18,652.62C515.24,657.11 520.66,660.58 524.46,662.25C528.37,663.97 534.46,663.82 538.3,664.69C543.51,665.87 550.45,668.62 553.06,673.45C558.09,682.76 553.26,693.19 543.4,696.41C530.64,700.57 518.3,699.287 506.38,692.56C505.568,692.095 505.269,691.055 505.71,690.23L508.49,685.06C508.913,684.272 509.891,683.949 510.7,684.33C518.24,687.88 526.03,690.19 534.22,689.37C538.56,688.93 543.65,687.06 544.16,682.19C544.72,676.92 539.73,674.9 535.26,674C527.707,672.48 522.693,671.407 520.22,670.78C509.97,668.19 505.56,659.83 507.84,649.87C509.01,644.76 515.77,640.87 520.6,639.52C531.44,636.5 541.99,637.58 552.25,642.76Z" style="fill-rule:nonzero;"/>
        </g>
        <g transform="matrix(1,0,0,1,428.845159,-279.379502)">
            <path d="M154.24,698.05L146.52,697.71C146.029,697.691 145.572,697.439 145.29,697.03C144.877,696.43 144.653,695.047 144.62,692.88C144.617,692.569 144.361,692.315 144.05,692.315C143.932,692.315 143.816,692.352 143.72,692.42C141.847,693.74 140.403,694.73 139.39,695.39C133.72,699.05 125.93,699.52 119.3,698.25C111.24,696.703 105.993,692.203 103.56,684.75C102.493,681.483 102.8,677.983 104.48,674.25C106.04,670.777 108.807,668.063 112.78,666.11C114.99,665.02 119.13,664.56 122.1,664.38C126.5,664.107 133.717,663.79 143.75,663.43C144.075,663.419 144.336,663.145 144.33,662.82C144.29,659.513 143.747,656.683 142.7,654.33C140.24,648.78 133.8,646.79 127.91,647.2C121.997,647.607 116.127,649.367 110.3,652.48C109.833,652.733 109.247,652.629 108.89,652.23C107.377,650.543 106.177,648.63 105.29,646.49C105.121,646.067 105.262,645.581 105.63,645.32C116.98,637.14 132.18,635.39 144.42,641.52C150.69,644.66 153.5,649.79 154.05,656.67C154.24,659 154.66,661.8 154.72,664.51C154.92,675.097 154.98,686.067 154.9,697.42C154.9,697.42 154.9,697.42 154.9,697.421C154.9,697.766 154.616,698.051 154.27,698.051C154.26,698.051 154.25,698.05 154.24,698.05ZM143.69,671.42C139.003,670.993 133.32,670.987 126.64,671.4C123.407,671.6 120.457,672.483 117.79,674.05C111.11,677.99 113.85,687.78 120.64,689.74C128,691.867 134.593,690.513 140.42,685.68C144.95,681.92 144.58,678.43 144.35,672.12C144.337,671.756 144.053,671.455 143.69,671.42Z" style="fill-rule:nonzero;"/>
        </g>
        <g transform="matrix(1,0,0,1,428.845159,-279.379502)">
            <path d="M420.74,668.75C420.62,680.98 415.36,690.07 404.62,695.52C397.69,699.03 388,699.75 380.47,697.46C367.38,693.48 359.3,682.16 359.44,668.12C359.59,654.08 367.9,642.93 381.07,639.22C388.65,637.09 398.32,638.01 405.18,641.66C415.8,647.33 420.87,656.53 420.74,668.75ZM389.098,646.915C378.134,647.452 369.582,657.51 370.154,669.197C370.726,680.885 380.218,690.061 391.182,689.524C402.146,688.988 410.698,678.93 410.126,667.242C409.554,655.555 400.062,646.379 389.098,646.915Z" style="fill-rule:nonzero;"/>
        </g>
        <g transform="matrix(1,0,0,1,428.845159,-279.379502)">
            <path d="M246.06,699L244.8,699C241.95,698.47 238.84,698.4 236.29,697.56C224.19,693.59 215.23,683.52 214.18,670.69C212.63,651.81 227.26,637.26 246.01,638.16C251.723,638.433 256.757,640.133 261.11,643.26C270.05,649.67 273.45,660.33 274.21,671.29C274.211,671.307 274.212,671.323 274.212,671.34C274.212,671.68 273.932,671.96 273.592,671.96C273.591,671.96 273.591,671.96 273.59,671.96C256.85,671.84 242.237,671.943 229.75,672.27C228.137,672.317 226.89,672.447 226.01,672.66C225.437,672.803 225.031,673.321 225.031,673.912C225.031,674.09 225.068,674.267 225.14,674.43C229.887,685.45 238.433,690.403 250.78,689.29C253.327,689.057 255.68,688.303 257.84,687.03C259.25,686.2 260.62,684.79 261.78,683.8C262.618,683.087 263.878,683.135 264.66,683.91L269.05,688.3C269.375,688.631 269.375,689.167 269.05,689.49C265.87,692.723 262.933,694.893 260.24,696C256.287,697.627 251.56,698.627 246.06,699ZM262.77,663.85C262.771,663.85 262.773,663.85 262.774,663.85C262.977,663.85 263.144,663.683 263.144,663.48C263.144,663.446 263.139,663.413 263.13,663.38C262.323,660.447 261.07,657.53 259.37,654.63C256.06,648.96 247.86,646.72 241.77,647.02C233.28,647.45 226.92,654.1 225.19,661.9C225.177,661.958 225.167,662.017 225.161,662.076C225.066,662.949 225.711,663.745 226.589,663.841C226.646,663.847 226.703,663.85 226.76,663.85L262.77,663.85Z" style="fill-rule:nonzero;"/>
        </g>
        <g transform="matrix(1,0,0,1,428.845159,-279.379502)">
            <path d="M574.88,672.33C574.743,672.33 574.63,672.443 574.63,672.58C574.63,672.604 574.633,672.627 574.64,672.65C577.373,682.637 583.757,688.193 593.79,689.32C600.617,690.093 606.797,688.183 612.33,683.59C612.653,683.323 613.059,683.176 613.478,683.176C614.063,683.176 614.613,683.462 614.95,683.94L618,688.27C618.651,689.199 618.485,690.482 617.62,691.2C613.907,694.3 610.03,696.373 605.99,697.42C602.11,698.427 597.423,698.79 591.93,698.51C584.99,698.16 578.24,694.75 573.3,690.14C566.51,683.79 563.54,674.5 564.08,665.24C565.01,649.63 578,638.48 593.03,638.21C605.79,637.977 614.883,643.453 620.31,654.64C622.61,659.38 623.37,666.24 623.66,671.6C623.66,671.603 623.66,671.607 623.66,671.61C623.66,671.705 623.585,671.785 623.49,671.79L574.88,672.33ZM574.87,663.55L610.71,663.87C610.714,663.87 610.718,663.87 610.722,663.87C611.6,663.87 612.322,663.148 612.322,662.27C612.322,662.163 612.312,662.055 612.29,661.95C610.64,654.17 604.36,647.49 595.92,646.99C589.86,646.63 581.68,648.79 578.33,654.41C576.617,657.277 575.343,660.167 574.51,663.08C574.501,663.113 574.496,663.146 574.496,663.18C574.496,663.383 574.663,663.55 574.866,663.55C574.867,663.55 574.869,663.55 574.87,663.55Z" style="fill-rule:nonzero;"/>
        </g>
    </g>
</svg>
