<?xml version="1.0" encoding="UTF-8" standalone="no"?>
<!DOCTYPE svg PUBLIC "-//W3C//DTD SVG 1.1//EN" "http://www.w3.org/Graphics/SVG/1.1/DTD/svg11.dtd">
<svg width="100%" height="100%" viewBox="0 0 264 311" version="1.1" xmlns="http://www.w3.org/2000/svg" xmlns:xlink="http://www.w3.org/1999/xlink" xml:space="preserve" xmlns:serif="http://www.serif.com/" style="fill-rule:evenodd;clip-rule:evenodd;stroke-linejoin:round;stroke-miterlimit:2;">
    <g transform="matrix(1,0,0,1,-380.536667,-66.76)">
        <path d="M512.09,66.76C512.257,66.76 512.38,66.783 512.46,66.83C562.027,95.483 605.433,120.71 642.68,142.51C643.292,142.868 643.669,143.528 643.67,144.24C643.703,173.613 643.723,199.557 643.73,222.07C643.737,244.577 643.733,270.517 643.72,299.89C643.722,300.6 643.348,301.259 642.74,301.62C605.507,323.447 562.113,348.703 512.56,377.39C512.48,377.437 512.357,377.46 512.19,377.46C512.023,377.46 511.9,377.437 511.82,377.39C462.247,348.737 418.837,323.51 381.59,301.71C380.978,301.352 380.601,300.692 380.6,299.98C380.573,270.6 380.553,244.657 380.54,222.15C380.533,199.643 380.537,173.7 380.55,144.32C380.551,143.608 380.928,142.948 381.54,142.59C418.773,120.763 462.163,95.51 511.71,66.83C511.79,66.783 511.917,66.76 512.09,66.76ZM428.43,162.51C428.657,162.634 428.933,162.634 429.16,162.51L543.85,100.61C544.097,100.478 544.252,100.22 544.252,99.939C544.252,99.667 544.106,99.415 543.87,99.28L512.69,81.28C512.455,81.144 512.165,81.144 511.93,81.28L400.41,145.66C400.176,145.796 400.032,146.047 400.032,146.317C400.032,146.592 400.181,146.846 400.42,146.98L428.43,162.51ZM557.79,107.33C557.59,107.215 557.344,107.211 557.14,107.32L442.18,169.37C441.965,169.487 441.832,169.713 441.832,169.958C441.832,170.198 441.961,170.421 442.17,170.54L471.67,186.9C471.868,187.011 472.109,187.015 472.31,186.91L586.66,125.18C586.877,125.064 587.014,124.836 587.014,124.589C587.014,124.351 586.886,124.13 586.68,124.01L557.79,107.33ZM631.11,293.62L631.11,150.71C631.111,150.179 630.828,149.687 630.37,149.42L600.78,132.34C600.363,132.104 599.857,132.097 599.44,132.32L480.56,196.49C479.971,196.803 479.601,197.416 479.6,198.08C479.573,225 479.587,272.39 479.64,340.25C479.64,343.13 479.18,344.13 481.57,345.5C494.483,352.92 504.413,358.737 511.36,362.95C511.643,363.122 512,363.126 512.29,362.96L630.47,294.73C630.866,294.501 631.111,294.077 631.11,293.62ZM393.02,293.76C393.018,293.977 393.133,294.18 393.32,294.29L450.6,327.36C450.694,327.415 450.801,327.445 450.91,327.445C451.245,327.445 451.52,327.169 451.52,326.835C451.52,326.833 451.52,326.832 451.52,326.83L451.52,190.32C451.52,190.101 451.401,189.898 451.21,189.79L434.02,180.25C433.928,180.198 433.825,180.171 433.72,180.171C433.385,180.171 433.11,180.446 433.11,180.781C433.11,180.784 433.11,180.787 433.11,180.79L433.11,214.66C433.11,214.663 433.11,214.666 433.11,214.669C433.11,215.004 432.835,215.279 432.5,215.279C432.395,215.279 432.292,215.252 432.2,215.2L420.81,208.88C420.619,208.772 420.5,208.569 420.5,208.35L420.5,172.75C420.5,172.531 420.381,172.328 420.19,172.22L393.93,157.66C393.838,157.608 393.735,157.581 393.63,157.581C393.295,157.581 393.02,157.856 393.02,158.191C393.02,158.194 393.02,158.197 393.02,158.2L393.02,293.76ZM461.07,193.95C461.016,193.927 460.958,193.916 460.9,193.916C460.659,193.916 460.46,194.114 460.46,194.356C460.46,194.357 460.46,194.359 460.46,194.36L460.46,333.06C460.459,333.222 460.547,333.373 460.69,333.45L469.75,338.47C469.814,338.505 469.887,338.523 469.96,338.523C470.201,338.523 470.4,338.325 470.4,338.083C470.4,338.082 470.4,338.081 470.4,338.08L470.4,198.23C470.398,198.055 470.291,197.898 470.13,197.83L461.07,193.95Z" style="fill:white;fill-rule:nonzero;"/>
        <path d="M611.98,164.71C611.98,164.709 611.98,164.708 611.98,164.707C611.98,164.51 611.818,164.347 611.62,164.347C611.561,164.347 611.502,164.362 611.45,164.39L554.68,193.6C554.428,193.728 554.269,193.988 554.27,194.27L554.27,310.86C554.27,311.669 553.817,312.413 553.1,312.78L552.38,313.16C552.179,313.263 551.956,313.318 551.73,313.318C550.952,313.318 550.311,312.678 550.31,311.9L550.31,196.8C550.31,196.753 550.304,196.707 550.293,196.661C550.215,196.336 549.887,196.132 549.567,196.208C549.519,196.22 549.473,196.237 549.43,196.26L492.43,225.6C492.092,225.773 491.879,226.117 491.88,226.49L491.88,340.55C491.88,341.609 491.009,342.48 489.95,342.48L489.32,342.48C488.579,342.48 487.97,341.875 487.97,341.14L487.82,208.25C487.82,206.92 488.567,205.697 489.75,205.09L490.04,204.94C490.13,204.894 490.224,204.859 490.322,204.836C491.004,204.671 491.701,205.092 491.865,205.769C491.888,205.868 491.9,205.969 491.9,206.07L491.9,219.9C492.027,220.52 492.43,220.65 493.11,220.29C497.79,217.783 501.07,216.087 502.95,215.2C507.183,213.2 511.313,211.123 515.34,208.97C527.19,202.64 536.67,198.12 549.81,191.25C550.13,191.083 550.331,190.754 550.33,190.4L550.33,175.06C550.331,174.276 550.772,173.556 551.47,173.2L552.54,172.65C552.701,172.567 552.879,172.523 553.06,172.523C553.68,172.523 554.19,173.033 554.19,173.653C554.19,173.655 554.19,173.658 554.19,173.66L554.19,188C554.19,188.001 554.19,188.003 554.19,188.004C554.19,188.311 554.443,188.564 554.75,188.564C554.841,188.564 554.93,188.542 555.01,188.5L610.96,159.71C611.524,159.421 611.881,158.841 611.88,158.21L611.88,154.76C611.879,154.386 612.088,154.042 612.42,153.87L615,152.54C615.099,152.489 615.209,152.463 615.32,152.463C615.703,152.463 616.019,152.777 616.02,153.16L616.02,279.38C616.021,280.565 615.269,281.63 614.15,282.03L613.83,282.14C613.754,282.167 613.676,282.188 613.597,282.202C612.851,282.331 612.13,281.818 612,281.067C611.987,280.989 611.98,280.909 611.98,280.83L611.98,164.71Z" style="fill:white;fill-rule:nonzero;"/>
        <path d="M569.81,171.98L569.81,168.15C569.81,167.813 570,167.503 570.3,167.35L594.58,154.86C594.707,154.795 594.847,154.761 594.99,154.761C595.483,154.761 595.889,155.167 595.89,155.66L595.89,159.49C595.89,159.827 595.7,160.137 595.4,160.29L571.12,172.78C570.993,172.845 570.853,172.879 570.71,172.879C570.217,172.879 569.811,172.473 569.81,171.98Z" style="fill:white;fill-rule:nonzero;"/>
        <path d="M560.42,227.64C560.42,227.64 560.42,197.75 560.42,197.75C560.42,197.418 560.606,197.113 560.9,196.96L604.93,174.3C605.057,174.234 605.197,174.2 605.34,174.2C605.828,174.2 606.23,174.602 606.23,175.09C606.23,175.09 606.23,204.99 606.23,204.99C606.23,205.322 606.044,205.627 605.75,205.78L561.72,228.43C561.593,228.496 561.453,228.53 561.31,228.53C560.822,228.53 560.42,228.128 560.42,227.64ZM566.4,204.68C566.404,204.99 566.66,205.243 566.97,205.243C567.06,205.243 567.15,205.221 567.23,205.18L591.97,192.45C592.161,192.352 592.281,192.155 592.28,191.94L592.28,188.93C592.276,188.62 592.02,188.367 591.71,188.367C591.62,188.367 591.53,188.389 591.45,188.43L566.71,201.15C566.519,201.248 566.399,201.445 566.4,201.66L566.4,204.68ZM583.77,202.57C583.769,202.28 583.53,202.043 583.24,202.043C583.157,202.043 583.074,202.062 583,202.1L566.68,210.49C566.503,210.58 566.391,210.762 566.39,210.96L566.39,214.15C566.391,214.44 566.63,214.677 566.92,214.677C567.003,214.677 567.086,214.658 567.16,214.62L583.48,206.23C583.657,206.14 583.769,205.958 583.77,205.76L583.77,202.57Z" style="fill:white;fill-rule:nonzero;"/>
        <path d="M534.01,187.64L534.01,191.56C534.011,191.918 533.809,192.248 533.49,192.41L507.82,205.62C507.687,205.688 507.539,205.723 507.39,205.723C506.869,205.723 506.44,205.294 506.44,204.773C506.44,204.772 506.44,204.771 506.44,204.77L506.44,200.85C506.439,200.492 506.641,200.162 506.96,200L532.63,186.79C532.763,186.722 532.911,186.687 533.06,186.687C533.581,186.687 534.01,187.116 534.01,187.637C534.01,187.638 534.01,187.639 534.01,187.64Z" style="fill:white;fill-rule:nonzero;"/>
        <path d="M544.21,207.03L544.21,250.09C544.213,250.451 544.011,250.784 543.69,250.95L499.27,273.8C499.134,273.87 498.983,273.907 498.83,273.907C498.305,273.907 497.872,273.475 497.87,272.95L497.87,229.89C497.867,229.529 498.069,229.196 498.39,229.03L542.81,206.18C542.946,206.11 543.097,206.073 543.25,206.073C543.775,206.073 544.208,206.505 544.21,207.03ZM532.92,219.72C532.92,219.719 532.92,219.718 532.92,219.717C532.92,219.311 532.586,218.977 532.18,218.977C532.062,218.977 531.945,219.006 531.84,219.06L504.26,233.25C504.014,233.377 503.859,233.633 503.86,233.91L503.86,236.59C503.864,236.993 504.197,237.323 504.6,237.323C504.718,237.323 504.835,237.294 504.94,237.24L532.52,223.05C532.766,222.923 532.921,222.667 532.92,222.39L532.92,219.72ZM519.28,235.54C519.28,235.539 519.28,235.538 519.28,235.537C519.28,235.273 519.063,235.057 518.8,235.057C518.723,235.057 518.648,235.075 518.58,235.11L504.17,242.53C504.013,242.611 503.912,242.773 503.91,242.95L503.91,246.24C503.91,246.241 503.91,246.242 503.91,246.243C503.91,246.507 504.127,246.723 504.39,246.723C504.467,246.723 504.542,246.705 504.61,246.67L519.02,239.25C519.177,239.169 519.278,239.007 519.28,238.83L519.28,235.54ZM536.82,236.421C533.6,234.592 529.105,236.336 526.861,240.286C524.617,244.235 525.421,248.99 528.64,250.819C531.86,252.648 536.355,250.904 538.599,246.954C540.843,243.005 540.039,238.25 536.82,236.421Z" style="fill:white;fill-rule:nonzero;"/>
        <path d="M605.16,212.83C605.278,212.769 605.408,212.738 605.54,212.738C605.995,212.738 606.37,213.113 606.37,213.568C606.37,213.569 606.37,213.569 606.37,213.57L606.37,254.06C606.369,254.324 606.226,254.564 606,254.68L561.73,277.46C561.606,277.524 561.469,277.557 561.33,277.557C560.853,277.557 560.46,277.165 560.46,276.687C560.46,276.685 560.46,276.682 560.46,276.68L560.46,237.63C560.459,236.526 561.074,235.512 562.05,235.01L605.16,212.83ZM582.48,235.08C582.482,235.419 582.761,235.697 583.1,235.697C583.197,235.697 583.293,235.674 583.38,235.63L600.36,226.89C600.567,226.785 600.699,226.572 600.7,226.34L600.7,223.41C600.698,223.071 600.419,222.793 600.08,222.793C599.983,222.793 599.887,222.816 599.8,222.86L582.82,231.6C582.613,231.705 582.481,231.918 582.48,232.15L582.48,235.08ZM570.59,237.74C568.14,238.89 566.31,239.72 567.37,242.79C567.43,242.969 567.599,243.09 567.787,243.09C567.85,243.09 567.913,243.076 567.97,243.05C570.237,242.003 571.673,241.337 572.28,241.05C574.73,239.91 576.56,239.08 575.5,236.01C575.44,235.831 575.271,235.71 575.083,235.71C575.02,235.71 574.957,235.724 574.9,235.75C572.633,236.797 571.197,237.46 570.59,237.74Z" style="fill:white;fill-rule:nonzero;"/>
        <g transform="matrix(0.493942,-0.869495,0.869495,0.493942,532.73,243.62)">
            <ellipse cx="0" cy="0" rx="8.28" ry="6.75" style="fill:white;"/>
        </g>
        <path d="M497.97,307.88L497.97,282.09C497.97,281.69 498.195,281.323 498.55,281.14L542.7,258.42C542.852,258.342 543.02,258.301 543.19,258.301C543.777,258.301 544.259,258.783 544.26,259.37L544.26,285.15C544.26,285.55 544.035,285.917 543.68,286.1L499.53,308.83C499.378,308.908 499.21,308.949 499.04,308.949C498.453,308.949 497.971,308.467 497.97,307.88ZM526.4,274.86C526.4,274.859 526.4,274.858 526.4,274.857C526.4,274.593 526.183,274.377 525.92,274.377C525.843,274.377 525.768,274.395 525.7,274.43L504.21,285.48C504.053,285.561 503.952,285.723 503.95,285.9L503.95,289.12C503.95,289.121 503.95,289.122 503.95,289.123C503.95,289.387 504.167,289.603 504.43,289.603C504.507,289.603 504.582,289.585 504.65,289.55L526.14,278.49C526.297,278.409 526.398,278.247 526.4,278.07L526.4,274.86Z" style="fill:white;fill-rule:nonzero;"/>
    </g>
</svg>
