<?xml version="1.0" encoding="UTF-8" standalone="no"?>
<!DOCTYPE svg PUBLIC "-//W3C//DTD SVG 1.1//EN" "http://www.w3.org/Graphics/SVG/1.1/DTD/svg11.dtd">
<svg width="100%" height="100%" viewBox="0 0 978 311" version="1.1" xmlns="http://www.w3.org/2000/svg" xmlns:xlink="http://www.w3.org/1999/xlink" xml:space="preserve" xmlns:serif="http://www.serif.com/" style="fill-rule:evenodd;clip-rule:evenodd;stroke-linejoin:round;stroke-miterlimit:2;">
    <g transform="matrix(1,0,0,1,-208.8549,-71.112669)">
        <g transform="matrix(1,0,0,1,-198.84,-66.76)">
            <g transform="matrix(1,0,0,1,27.158309,71.112669)">
                <path d="M512.09,66.76C512.257,66.76 512.38,66.783 512.46,66.83C562.027,95.483 605.433,120.71 642.68,142.51C643.292,142.868 643.669,143.528 643.67,144.24C643.703,173.613 643.723,199.557 643.73,222.07C643.737,244.577 643.733,270.517 643.72,299.89C643.722,300.6 643.348,301.259 642.74,301.62C605.507,323.447 562.113,348.703 512.56,377.39C512.48,377.437 512.357,377.46 512.19,377.46C512.023,377.46 511.9,377.437 511.82,377.39C462.247,348.737 418.837,323.51 381.59,301.71C380.978,301.352 380.601,300.692 380.6,299.98C380.573,270.6 380.553,244.657 380.54,222.15C380.533,199.643 380.537,173.7 380.55,144.32C380.551,143.608 380.928,142.948 381.54,142.59C418.773,120.763 462.163,95.51 511.71,66.83C511.79,66.783 511.917,66.76 512.09,66.76ZM428.43,162.51C428.657,162.634 428.933,162.634 429.16,162.51L543.85,100.61C544.097,100.478 544.252,100.22 544.252,99.939C544.252,99.667 544.106,99.415 543.87,99.28L512.69,81.28C512.455,81.144 512.165,81.144 511.93,81.28L400.41,145.66C400.176,145.796 400.032,146.047 400.032,146.317C400.032,146.592 400.181,146.846 400.42,146.98L428.43,162.51ZM557.79,107.33C557.59,107.215 557.344,107.211 557.14,107.32L442.18,169.37C441.965,169.487 441.832,169.713 441.832,169.958C441.832,170.198 441.961,170.421 442.17,170.54L471.67,186.9C471.868,187.011 472.109,187.015 472.31,186.91L586.66,125.18C586.877,125.064 587.014,124.836 587.014,124.589C587.014,124.351 586.886,124.13 586.68,124.01L557.79,107.33ZM631.11,293.62L631.11,150.71C631.111,150.179 630.828,149.687 630.37,149.42L600.78,132.34C600.363,132.104 599.857,132.097 599.44,132.32L480.56,196.49C479.971,196.803 479.601,197.416 479.6,198.08C479.573,225 479.587,272.39 479.64,340.25C479.64,343.13 479.18,344.13 481.57,345.5C494.483,352.92 504.413,358.737 511.36,362.95C511.643,363.122 512,363.126 512.29,362.96L630.47,294.73C630.866,294.501 631.111,294.077 631.11,293.62ZM393.02,293.76C393.018,293.977 393.133,294.18 393.32,294.29L450.6,327.36C450.694,327.415 450.801,327.445 450.91,327.445C451.245,327.445 451.52,327.169 451.52,326.835L451.52,190.32C451.52,190.101 451.401,189.898 451.21,189.79L434.02,180.25C433.928,180.198 433.825,180.171 433.72,180.171C433.385,180.171 433.11,180.446 433.11,180.781L433.11,214.669C433.11,215.004 432.835,215.279 432.5,215.279C432.395,215.279 432.292,215.252 432.2,215.2L420.81,208.88C420.619,208.772 420.5,208.569 420.5,208.35L420.5,172.75C420.5,172.531 420.381,172.328 420.19,172.22L393.93,157.66C393.838,157.608 393.735,157.581 393.63,157.581C393.295,157.581 393.02,157.856 393.02,158.191L393.02,293.76ZM461.07,193.95C461.016,193.927 460.958,193.916 460.9,193.916C460.659,193.916 460.46,194.114 460.46,194.356L460.46,333.06C460.459,333.222 460.547,333.373 460.69,333.45L469.75,338.47C469.814,338.505 469.887,338.523 469.96,338.523C470.201,338.523 470.4,338.325 470.4,338.083L470.4,198.23C470.398,198.055 470.291,197.898 470.13,197.83L461.07,193.95Z" style="fill-rule:nonzero;"/>
            </g>
        </g>
        <g transform="matrix(1,0,0,1,-198.84,-66.76)">
            <g transform="matrix(1,0,0,1,27.158309,71.112669)">
                <path d="M611.98,280.83L611.98,164.707C611.98,164.51 611.818,164.347 611.62,164.347C611.561,164.347 611.502,164.362 611.45,164.39L554.68,193.6C554.428,193.728 554.269,193.988 554.27,194.27L554.27,310.86C554.27,311.669 553.817,312.413 553.1,312.78L552.38,313.16C552.179,313.263 551.956,313.318 551.73,313.318C550.952,313.318 550.311,312.678 550.31,311.9L550.31,196.8C550.31,196.753 550.304,196.707 550.293,196.661C550.215,196.336 549.887,196.132 549.567,196.208C549.519,196.22 549.473,196.237 549.43,196.26L492.43,225.6C492.092,225.773 491.879,226.117 491.88,226.49L491.88,340.55C491.88,341.609 491.009,342.48 489.95,342.48L489.32,342.48C488.579,342.48 487.97,341.875 487.97,341.14L487.82,208.25C487.82,206.92 488.567,205.697 489.75,205.09L490.04,204.94C490.13,204.894 490.224,204.859 490.322,204.836C491.004,204.671 491.701,205.092 491.865,205.769C491.888,205.868 491.9,205.969 491.9,206.07L491.9,219.9C492.027,220.52 492.43,220.65 493.11,220.29C497.79,217.783 501.07,216.087 502.95,215.2C507.183,213.2 511.313,211.123 515.34,208.97C527.19,202.64 536.67,198.12 549.81,191.25C550.13,191.083 550.331,190.754 550.33,190.4L550.33,175.06C550.331,174.276 550.772,173.556 551.47,173.2L552.54,172.65C552.701,172.567 552.879,172.523 553.06,172.523C553.68,172.523 554.19,173.033 554.19,173.653L554.19,188.004C554.19,188.311 554.443,188.564 554.75,188.564C554.841,188.564 554.93,188.542 555.01,188.5L610.96,159.71C611.524,159.421 611.881,158.841 611.88,158.21L611.88,154.76C611.879,154.386 612.088,154.042 612.42,153.87L615,152.54C615.099,152.489 615.209,152.463 615.32,152.463C615.703,152.463 616.019,152.777 616.02,153.16L616.02,279.38C616.021,280.565 615.269,281.63 614.15,282.03L613.83,282.14C613.754,282.167 613.676,282.188 613.597,282.202C612.851,282.331 612.13,281.818 612,281.067C611.987,280.989 611.98,280.909 611.98,280.83Z" style="fill-rule:nonzero;"/>
            </g>
        </g>
        <g transform="matrix(1,0,0,1,-198.84,-66.76)">
            <g transform="matrix(1,0,0,1,27.158309,71.112669)">
                <path d="M569.81,171.98L569.81,168.15C569.81,167.813 570,167.503 570.3,167.35L594.58,154.86C594.707,154.795 594.847,154.761 594.99,154.761C595.483,154.761 595.889,155.167 595.89,155.66L595.89,159.49C595.89,159.827 595.7,160.137 595.4,160.29L571.12,172.78C570.993,172.845 570.853,172.879 570.71,172.879C570.217,172.879 569.811,172.473 569.81,171.98Z" style="fill-rule:nonzero;"/>
            </g>
        </g>
        <g transform="matrix(1,0,0,1,-198.84,-66.76)">
            <g transform="matrix(1,0,0,1,27.158309,71.112669)">
                <path d="M560.42,227.64L560.42,197.75C560.42,197.418 560.606,197.113 560.9,196.96L604.93,174.3C605.057,174.234 605.197,174.2 605.34,174.2C605.828,174.2 606.23,174.602 606.23,175.09L606.23,204.99C606.23,205.322 606.044,205.627 605.75,205.78L561.72,228.43C561.593,228.496 561.453,228.53 561.31,228.53C560.822,228.53 560.42,228.128 560.42,227.64ZM566.4,204.68C566.404,204.99 566.66,205.243 566.97,205.243C567.06,205.243 567.15,205.221 567.23,205.18L591.97,192.45C592.161,192.352 592.281,192.155 592.28,191.94L592.28,188.93C592.276,188.62 592.02,188.367 591.71,188.367C591.62,188.367 591.53,188.389 591.45,188.43L566.71,201.15C566.519,201.248 566.399,201.445 566.4,201.66L566.4,204.68ZM583.77,202.57C583.769,202.28 583.53,202.043 583.24,202.043C583.157,202.043 583.074,202.062 583,202.1L566.68,210.49C566.503,210.58 566.391,210.762 566.39,210.96L566.39,214.15C566.391,214.44 566.63,214.677 566.92,214.677C567.003,214.677 567.086,214.658 567.16,214.62L583.48,206.23C583.657,206.14 583.769,205.958 583.77,205.76L583.77,202.57Z" style="fill-rule:nonzero;"/>
            </g>
        </g>
        <g transform="matrix(1,0,0,1,-198.84,-66.76)">
            <g transform="matrix(1,0,0,1,27.158309,71.112669)">
                <path d="M534.01,187.637L534.01,191.56C534.011,191.918 533.809,192.248 533.49,192.41L507.82,205.62C507.687,205.688 507.539,205.723 507.39,205.723C506.869,205.723 506.44,205.294 506.44,204.773L506.44,200.85C506.439,200.492 506.641,200.162 506.96,200L532.63,186.79C532.763,186.722 532.911,186.687 533.06,186.687C533.581,186.687 534.01,187.116 534.01,187.637Z" style="fill-rule:nonzero;"/>
            </g>
        </g>
        <g transform="matrix(1,0,0,1,-198.84,-66.76)">
            <g transform="matrix(1,0,0,1,27.158309,71.112669)">
                <path d="M544.21,207.03L544.21,250.09C544.213,250.451 544.011,250.784 543.69,250.95L499.27,273.8C499.134,273.87 498.983,273.907 498.83,273.907C498.305,273.907 497.872,273.475 497.87,272.95L497.87,229.89C497.867,229.529 498.069,229.196 498.39,229.03L542.81,206.18C542.946,206.11 543.097,206.073 543.25,206.073C543.775,206.073 544.208,206.505 544.21,207.03ZM532.92,222.39L532.92,219.717C532.92,219.311 532.586,218.977 532.18,218.977C532.062,218.977 531.945,219.006 531.84,219.06L504.26,233.25C504.014,233.377 503.859,233.633 503.86,233.91L503.86,236.59C503.864,236.993 504.197,237.323 504.6,237.323C504.718,237.323 504.835,237.294 504.94,237.24L532.52,223.05C532.766,222.923 532.921,222.667 532.92,222.39ZM519.28,238.83L519.28,235.537C519.28,235.273 519.063,235.057 518.8,235.057C518.723,235.057 518.648,235.075 518.58,235.11L504.17,242.53C504.013,242.611 503.912,242.773 503.91,242.95L503.91,246.243C503.91,246.507 504.127,246.723 504.39,246.723C504.467,246.723 504.542,246.705 504.61,246.67L519.02,239.25C519.177,239.169 519.278,239.007 519.28,238.83ZM536.82,236.421C533.6,234.592 529.105,236.336 526.861,240.286C524.617,244.235 525.421,248.99 528.64,250.819C531.86,252.648 536.355,250.904 538.599,246.954C540.843,243.005 540.039,238.25 536.82,236.421Z" style="fill-rule:nonzero;"/>
            </g>
        </g>
        <g transform="matrix(1,0,0,1,-198.84,-66.76)">
            <g transform="matrix(1,0,0,1,27.158309,71.112669)">
                <path d="M605.16,212.83C605.278,212.769 605.408,212.738 605.54,212.738C605.995,212.738 606.37,213.113 606.37,213.568L606.37,254.06C606.369,254.324 606.226,254.564 606,254.68L561.73,277.46C561.606,277.524 561.469,277.557 561.33,277.557C560.853,277.557 560.46,277.165 560.46,276.687L560.46,237.63C560.459,236.526 561.074,235.512 562.05,235.01L605.16,212.83ZM582.48,235.08C582.482,235.419 582.761,235.697 583.1,235.697C583.197,235.697 583.293,235.674 583.38,235.63L600.36,226.89C600.567,226.785 600.699,226.572 600.7,226.34L600.7,223.41C600.698,223.071 600.419,222.793 600.08,222.793C599.983,222.793 599.887,222.816 599.8,222.86L582.82,231.6C582.613,231.705 582.481,231.918 582.48,232.15L582.48,235.08ZM570.59,237.74C568.14,238.89 566.31,239.72 567.37,242.79C567.43,242.969 567.599,243.09 567.787,243.09C567.85,243.09 567.913,243.076 567.97,243.05C570.237,242.003 571.673,241.337 572.28,241.05C574.73,239.91 576.56,239.08 575.5,236.01C575.44,235.831 575.271,235.71 575.083,235.71C575.02,235.71 574.957,235.724 574.9,235.75C572.633,236.797 571.197,237.46 570.59,237.74Z" style="fill-rule:nonzero;"/>
            </g>
        </g>
        <g transform="matrix(1,0,0,1,-198.84,-66.76)">
            <g transform="matrix(0.493942,-0.869495,0.869495,0.493942,559.888309,314.732669)">
                <ellipse cx="0" cy="0" rx="8.28" ry="6.75" style="fill:rgb(220,33,32);"/>
            </g>
        </g>
        <g transform="matrix(1,0,0,1,-198.84,-66.76)">
            <g transform="matrix(1,0,0,1,27.158309,71.112669)">
                <path d="M497.97,307.88L497.97,282.09C497.97,281.69 498.195,281.323 498.55,281.14L542.7,258.42C542.852,258.342 543.02,258.301 543.19,258.301C543.777,258.301 544.259,258.783 544.26,259.37L544.26,285.15C544.26,285.55 544.035,285.917 543.68,286.1L499.53,308.83C499.378,308.908 499.21,308.949 499.04,308.949C498.453,308.949 497.971,308.467 497.97,307.88ZM526.4,278.07L526.4,274.857C526.4,274.593 526.183,274.377 525.92,274.377C525.843,274.377 525.768,274.395 525.7,274.43L504.21,285.48C504.053,285.561 503.952,285.723 503.95,285.9L503.95,289.123C503.95,289.387 504.167,289.603 504.43,289.603C504.507,289.603 504.582,289.585 504.65,289.55L526.14,278.49C526.297,278.409 526.398,278.247 526.4,278.07Z" style="fill-rule:nonzero;"/>
            </g>
        </g>
        <g transform="matrix(1,0,0,1,-198.84,-66.76)">
            <g transform="matrix(1,0,0,1,559.667008,-166.5)">
                <path d="M281.16,400.97L281.16,474.75C281.16,475.197 280.797,475.56 280.35,475.56L269.09,475.56C268.643,475.56 268.28,475.197 268.28,474.75L268.28,400.97C268.28,400.523 268.643,400.16 269.09,400.16L280.35,400.16C280.797,400.16 281.16,400.523 281.16,400.97Z"/>
            </g>
        </g>
        <g transform="matrix(1,0,0,1,-198.84,-66.76)">
            <g transform="matrix(1,0,0,1,559.667008,-166.5)">
                <path d="M743.85,428.09C743.849,428.148 743.863,428.204 743.889,428.255C743.979,428.431 744.202,428.499 744.382,428.406C744.432,428.381 744.476,428.344 744.51,428.3C748.71,422.58 755.69,420.3 762.66,420.6C762.927,420.611 763.14,420.829 763.14,421.09L763.14,434.31C763.14,434.323 763.14,434.337 763.139,434.35C763.12,434.657 762.847,434.893 762.535,434.873C762.523,434.873 762.512,434.871 762.5,434.87C756.01,434.08 749.58,435.6 746.4,441.37C745.113,443.703 744.49,448.047 744.53,454.4C744.583,464.067 744.56,470.883 744.46,474.85C744.455,475.23 744.136,475.54 743.75,475.54L730.07,475.54C729.604,475.54 729.22,475.156 729.22,474.69L729.22,422.05C729.22,421.65 729.55,421.32 729.95,421.32L743.26,421.32C743.584,421.32 743.85,421.586 743.85,421.91L743.85,428.09Z" style="fill:rgb(206,31,35);fill-rule:nonzero;"/>
            </g>
        </g>
        <g transform="matrix(1,0,0,1,-198.84,-66.76)">
            <g transform="matrix(1,0,0,1,559.667008,-166.5)">
                <path d="M210.89,421.92L210.89,427.41C210.89,427.461 210.9,427.511 210.92,427.558C210.999,427.745 211.214,427.836 211.396,427.758C211.443,427.738 211.486,427.708 211.52,427.67C215.1,423.897 219.35,421.71 224.27,421.11C232.67,420.08 239.92,421.16 246.63,426.87C250.51,430.163 253.103,434.207 254.41,439C257.64,450.8 255.66,463.48 245.51,471.35C236.02,478.69 221.31,478.58 212.17,469.95C212.133,469.916 212.091,469.889 212.044,469.87C211.84,469.788 211.607,469.884 211.527,470.083C211.509,470.129 211.499,470.179 211.5,470.23L211.5,494.71C211.5,495.067 211.207,495.36 210.85,495.36L199.4,495.36C199.093,495.36 198.84,495.103 198.84,494.79L198.84,421.88C198.84,421.589 199.075,421.35 199.36,421.35L210.32,421.35C210.633,421.35 210.89,421.607 210.89,421.92ZM227.33,431.24C218.503,431.255 211.253,439.082 211.27,448.578C211.287,458.074 218.563,465.875 227.39,465.86C236.217,465.845 243.467,458.018 243.45,448.522C243.433,439.026 236.157,431.225 227.33,431.24Z" style="fill-rule:nonzero;"/>
            </g>
        </g>
        <g transform="matrix(1,0,0,1,-198.84,-66.76)">
            <g transform="matrix(1,0,0,1,559.667008,-166.5)">
                <path d="M331.05,470.37C324.923,475.643 317.57,477.527 308.99,476.02C303.57,475.067 299.283,472.427 296.13,468.1C293.4,464.35 293.02,456.88 295.31,452.71C299.07,445.84 307.06,444.02 314.51,443.83C318.943,443.723 324.123,443.7 330.05,443.76L330.054,443.76C330.333,443.76 330.564,443.53 330.564,443.25C330.564,443.23 330.562,443.21 330.56,443.19C330.19,440.22 329.66,436.85 327.76,434.57C323.61,429.57 313.43,430.25 308.15,432.22C305.71,433.12 302.98,435.03 300.93,436.09C300.669,436.221 300.346,436.119 300.2,435.86L295.8,427.7C295.694,427.5 295.754,427.25 295.94,427.12C304.73,421.19 317.15,419.25 327.15,421.62C334.797,423.433 339.76,428.09 342.04,435.59C342.54,437.243 342.82,440.797 342.88,446.25C342.967,453.863 342.95,463.43 342.83,474.95C342.825,475.325 342.515,475.63 342.14,475.63L332.06,475.63C331.775,475.63 331.54,475.395 331.54,475.11L331.54,470.59C331.541,470.554 331.535,470.517 331.522,470.483C331.466,470.335 331.293,470.26 331.139,470.318C331.106,470.33 331.076,470.348 331.05,470.37ZM329.8,452.08C321.353,452.04 316.197,452.083 314.33,452.21C310.603,452.463 308.087,453.923 306.78,456.59C304.94,460.35 307.67,465.43 311.39,466.6C316.4,468.17 323.45,467.46 327.4,463.64C330.12,461 331.123,457.323 330.41,452.61C330.362,452.31 330.104,452.086 329.8,452.08Z" style="fill-rule:nonzero;"/>
            </g>
        </g>
        <g transform="matrix(1,0,0,1,-198.84,-66.76)">
            <g transform="matrix(1,0,0,1,559.667008,-166.5)">
                <path d="M371.26,422.41L371.26,427.431C371.26,427.601 371.4,427.741 371.57,427.741C371.63,427.741 371.689,427.723 371.74,427.69C373.04,426.86 374.96,424.84 376.71,423.92C382.33,420.96 388.6,420.073 395.52,421.26C406.33,423.12 412.16,432.26 412.27,442.84C412.39,455.14 412.413,465.883 412.34,475.07C412.335,475.406 412.061,475.68 411.73,475.68L400.54,475.68C400.063,475.68 399.67,475.287 399.67,474.81L399.67,474.8C399.723,463.527 399.75,454.82 399.75,448.68C399.76,439.15 397.87,432.21 387.54,431.7C378.38,431.26 371.98,437.7 371.83,446.85C371.75,452.21 371.723,461.597 371.75,475.01L371.75,475.026C371.753,475.371 371.466,475.658 371.115,475.66L371.11,475.66L359.84,475.65C359.407,475.65 359.05,475.293 359.05,474.86L359.07,421.92C359.07,421.607 359.323,421.35 359.63,421.35L370.21,421.36C370.786,421.36 371.26,421.834 371.26,422.41Z" style="fill-rule:nonzero;"/>
            </g>
        </g>
        <g transform="matrix(1,0,0,1,-198.84,-66.76)">
            <g transform="matrix(1,0,0,1,559.667008,-166.5)">
                <path d="M440.85,427.67C442.14,426.84 444.06,424.82 445.8,423.9C451.407,420.947 457.66,420.06 464.56,421.24C475.34,423.09 481.16,432.21 481.27,442.76C481.397,455.027 481.427,465.74 481.36,474.9C481.355,475.236 481.081,475.51 480.75,475.51L469.59,475.51C469.113,475.51 468.72,475.117 468.72,474.64L468.72,474.63C468.767,463.39 468.79,454.71 468.79,448.59C468.8,439.08 466.91,432.16 456.61,431.66C447.47,431.22 441.09,437.65 440.95,446.77C440.87,452.117 440.847,461.48 440.88,474.86L440.88,474.866C440.882,475.211 440.596,475.498 440.244,475.5L429,475.5C428.567,475.5 428.21,475.143 428.21,474.71L428.21,421.92C428.21,421.607 428.463,421.35 428.77,421.35L439.32,421.35C439.896,421.35 440.37,421.824 440.37,422.4L440.37,427.411C440.37,427.581 440.51,427.721 440.68,427.721C440.74,427.721 440.799,427.703 440.85,427.67Z" style="fill-rule:nonzero;"/>
            </g>
        </g>
        <g transform="matrix(1,0,0,1,-198.84,-66.76)">
            <g transform="matrix(1,0,0,1,559.667008,-166.5)">
                <path d="M506.02,453.15C507.34,458.737 510.45,462.463 515.35,464.33C523.683,467.51 531.04,466.257 537.42,460.57C537.794,460.235 538.369,460.248 538.72,460.6L545.19,467.07C545.363,467.241 545.368,467.523 545.2,467.7C536.78,476.98 523.77,478.21 512.15,474.79C505.8,472.92 501.6,469.15 497.62,463.84C495.633,461.193 494.33,457.587 493.71,453.02C492.457,443.793 494.733,435.89 500.54,429.31C504.45,424.89 511.04,421.44 517.25,420.97C522.683,420.563 527.013,420.853 530.24,421.84C538.613,424.393 544.33,430.123 547.39,439.03C548.59,442.51 548.82,448.5 548.63,451.67C548.609,452.088 548.259,452.421 547.84,452.42L506.59,452.42C506.268,452.422 506.003,452.688 506.003,453.01C506.003,453.057 506.009,453.104 506.02,453.15ZM521.31,444.09C523.83,444.09 528.877,444.093 536.45,444.1C536.459,444.1 536.469,444.099 536.478,444.098C536.697,444.076 536.858,443.882 536.836,443.669C536.835,443.656 536.833,443.643 536.83,443.63C535.29,435.91 529.49,430.37 521.32,430.36C513.15,430.36 507.33,435.89 505.78,443.61C505.777,443.623 505.775,443.635 505.774,443.648C505.752,443.861 505.913,444.055 506.131,444.078C506.144,444.079 506.157,444.08 506.17,444.08C513.737,444.087 518.783,444.09 521.31,444.09Z" style="fill-rule:nonzero;"/>
            </g>
        </g>
        <g transform="matrix(1,0,0,1,-198.84,-66.76)">
            <g transform="matrix(1,0,0,1,559.667008,-166.5)">
                <path d="M652.8,433.29C652.918,433.51 652.838,433.789 652.62,433.92L641.83,440.15C641.457,440.366 640.976,440.266 640.72,439.92C638.29,436.65 635.53,434.29 631.36,433.51C624.51,432.24 617.78,435.61 615.35,442.35C611.53,453 617.92,465.14 630.44,463.72C634.86,463.227 638.23,460.877 640.55,456.67C640.715,456.37 641.031,456.182 641.374,456.182C641.534,456.182 641.691,456.223 641.83,456.3L652.46,462.19C652.749,462.349 652.864,462.709 652.72,463C649.49,469.72 644.16,473.96 636.77,475.68C622.41,479.03 604.33,472.79 600.02,457.4C597.233,447.453 598.623,438.907 604.19,431.76C608.95,425.63 616.49,421.51 624.29,420.84C635.85,419.84 646.88,422.2 652.8,433.29Z" style="fill:rgb(206,31,35);fill-rule:nonzero;"/>
            </g>
        </g>
        <g transform="matrix(1,0,0,1,-198.84,-66.76)">
            <g transform="matrix(1,0,0,1,559.667008,-166.5)">
                <path d="M688.99,420.57C705.63,420.77 718.5,431.83 718.3,448.9C718.09,465.97 704.96,476.72 688.32,476.52C671.68,476.32 658.81,465.26 659.01,448.19C659.22,431.12 672.35,420.37 688.99,420.57ZM688.434,433.091L688.434,433.092C680.546,433.202 674.153,440.28 674.271,448.771C674.39,457.262 680.978,464.159 688.866,464.048C696.754,463.938 703.147,456.86 703.029,448.369C702.91,439.878 696.322,432.981 688.434,433.092L688.434,433.091Z" style="fill:rgb(206,31,35);fill-rule:nonzero;"/>
            </g>
        </g>
        <g transform="matrix(1,0,0,1,-198.84,-66.76)">
            <g transform="matrix(1,0,0,1,559.667008,-166.5)">
                <path d="M821.48,467.93C813.58,476.37 800.79,478.18 789.91,475.58C778.34,472.8 769.78,464.3 768.67,452.35C768.06,445.85 768.8,439.3 772.39,433.65C777.99,424.823 786.617,420.48 798.27,420.62C803.61,420.68 808.18,421.803 811.98,423.99C822.63,430.13 826.03,440.65 825.37,452.4C825.359,452.634 825.164,452.82 824.93,452.82L784.146,452.82C783.844,452.82 783.596,453.068 783.596,453.37C783.596,453.435 783.608,453.499 783.63,453.56C785.81,459.567 790.107,463.043 796.52,463.99C802.633,464.897 807.94,463.21 812.44,458.93C812.764,458.619 813.289,458.627 813.61,458.95L821.46,466.8C821.767,467.105 821.776,467.607 821.48,467.93ZM783.99,443.64L810.41,443.6C810.415,443.6 810.42,443.595 810.42,443.59L810.42,443.487C810.409,437.337 804.46,432.287 797.24,432.3L797.12,432.3C789.902,432.313 783.971,437.382 783.98,443.53L783.98,443.63C783.98,443.635 783.985,443.64 783.99,443.64Z" style="fill:rgb(206,31,35);fill-rule:nonzero;"/>
            </g>
        </g>
        <g transform="matrix(1,0,0,1,-198.84,-66.76)">
            <g transform="matrix(1,0,0,1,559.667008,-166.5)">
                <path d="M573.34,421.87L573.34,428.89C573.34,429 573.43,429.09 573.54,429.09C573.603,429.09 573.662,429.061 573.7,429.01C578.367,423.077 584.573,420.41 592.32,421.01C592.68,421.036 592.961,421.344 592.96,421.71L592.96,431.749C592.955,432.073 592.689,432.335 592.371,432.33L592.36,432.33C589.65,432.22 585.74,432.29 583.28,433.43C577.393,436.177 574.353,440.78 574.16,447.24C574.007,452.54 573.943,461.737 573.97,474.83C573.97,475.247 573.631,475.59 573.22,475.59L561.86,475.59C561.564,475.59 561.32,475.342 561.32,475.04L561.32,421.97C561.32,421.63 561.6,421.35 561.94,421.35L572.81,421.35C573.101,421.35 573.34,421.585 573.34,421.87Z" style="fill-rule:nonzero;"/>
            </g>
        </g>
    </g>
</svg>
