<?xml version="1.0" encoding="UTF-8" standalone="no"?>
<!DOCTYPE svg PUBLIC "-//W3C//DTD SVG 1.1//EN" "http://www.w3.org/Graphics/SVG/1.1/DTD/svg11.dtd">
<svg width="100%" height="100%" viewBox="0 0 1197 701" version="1.1" xmlns="http://www.w3.org/2000/svg" xmlns:xlink="http://www.w3.org/1999/xlink" xml:space="preserve" xmlns:serif="http://www.serif.com/" style="fill-rule:evenodd;clip-rule:evenodd;">
    <g>
        <g transform="matrix(1,0,0,1,0,73.19322)">
            <path d="M237.17,165.84C236.143,166.133 235.227,166.623 234.42,167.31" style="fill:none;fill-rule:nonzero;stroke:rgb(103,16,18);stroke-width:2px;"/>
        </g>
        <g transform="matrix(1,0,0,1,0,73.19322)">
            <path d="M233.53,167.69L232.41,168.24" style="fill:none;fill-rule:nonzero;stroke:rgb(103,16,18);stroke-width:2px;"/>
        </g>
        <g transform="matrix(1,0,0,1,0,73.19322)">
            <path d="M231.53,168.69L230.42,169.24" style="fill:none;fill-rule:nonzero;stroke:rgb(103,16,18);stroke-width:2px;"/>
        </g>
        <g transform="matrix(1,0,0,1,0,73.19322)">
            <path d="M229.53,169.71L228.42,170.24" style="fill:none;fill-rule:nonzero;stroke:rgb(103,16,18);stroke-width:2px;"/>
        </g>
        <g transform="matrix(1,0,0,1,0,73.19322)">
            <path d="M227.53,170.71L226.42,171.23" style="fill:none;fill-rule:nonzero;stroke:rgb(103,16,18);stroke-width:2px;"/>
        </g>
        <g transform="matrix(1,0,0,1,0,73.19322)">
            <path d="M225.53,171.71L224.43,172.23" style="fill:none;fill-rule:nonzero;stroke:rgb(103,16,18);stroke-width:2px;"/>
        </g>
        <g transform="matrix(1,0,0,1,0,73.19322)">
            <path d="M223.53,172.71L222.42,173.23" style="fill:none;fill-rule:nonzero;stroke:rgb(103,16,18);stroke-width:2px;"/>
        </g>
        <g transform="matrix(1,0,0,1,0,73.19322)">
            <path d="M221.71,173.56L220.42,174.23" style="fill:none;fill-rule:nonzero;stroke:rgb(103,16,18);stroke-width:2px;"/>
        </g>
        <g transform="matrix(1,0,0,1,0,73.19322)">
            <path d="M219.71,174.56L218.45,175.23" style="fill:none;fill-rule:nonzero;stroke:rgb(103,16,18);stroke-width:2px;"/>
        </g>
        <g transform="matrix(1,0,0,1,0,73.19322)">
            <path d="M217.71,175.56L216.45,176.23" style="fill:none;fill-rule:nonzero;stroke:rgb(103,16,18);stroke-width:2px;"/>
        </g>
        <g transform="matrix(1,0,0,1,0,73.19322)">
            <path d="M215.71,176.57L214.46,177.23" style="fill:none;fill-rule:nonzero;stroke:rgb(103,16,18);stroke-width:2px;"/>
        </g>
        <g transform="matrix(1,0,0,1,0,73.19322)">
            <path d="M213.71,177.57L212.47,178.23" style="fill:none;fill-rule:nonzero;stroke:rgb(103,16,18);stroke-width:2px;"/>
        </g>
        <g transform="matrix(1,0,0,1,0,73.19322)">
            <path d="M211.71,178.76C211.263,178.78 210.853,178.94 210.48,179.24" style="fill:none;fill-rule:nonzero;stroke:rgb(103,16,18);stroke-width:2px;"/>
        </g>
        <g transform="matrix(1,0,0,1,0,73.19322)">
            <path d="M209.71,179.76C209.263,179.78 208.857,179.94 208.49,180.24" style="fill:none;fill-rule:nonzero;stroke:rgb(103,16,18);stroke-width:2px;"/>
        </g>
        <g transform="matrix(1,0,0,1,0,73.19322)">
            <path d="M207.71,180.76C207.257,180.793 206.853,180.953 206.5,181.24" style="fill:none;fill-rule:nonzero;stroke:rgb(103,16,18);stroke-width:2px;"/>
        </g>
        <g transform="matrix(1,0,0,1,0,73.19322)">
            <path d="M205.71,181.76C205.263,181.793 204.863,181.953 204.51,182.24" style="fill:none;fill-rule:nonzero;stroke:rgb(103,16,18);stroke-width:2px;"/>
        </g>
        <g transform="matrix(1,0,0,1,0,73.19322)">
            <path d="M203.72,182.77C203.507,182.817 203.313,182.907 203.14,183.04" style="fill:none;fill-rule:nonzero;stroke:rgb(103,16,18);stroke-width:2px;"/>
        </g>
        <g transform="matrix(1,0,0,1,0,73.19322)">
            <path d="M201.72,183.77C201.507,183.817 201.313,183.907 201.14,184.04" style="fill:none;fill-rule:nonzero;stroke:rgb(103,16,18);stroke-width:2px;"/>
        </g>
        <g transform="matrix(1,0,0,1,0,73.19322)">
            <path d="M199.72,184.77C199.507,184.817 199.313,184.907 199.14,185.04" style="fill:none;fill-rule:nonzero;stroke:rgb(103,16,18);stroke-width:2px;"/>
        </g>
        <g transform="matrix(1,0,0,1,0,73.19322)">
            <path d="M197.72,185.77C197.507,185.817 197.313,185.907 197.14,186.04" style="fill:none;fill-rule:nonzero;stroke:rgb(103,16,18);stroke-width:2px;"/>
        </g>
        <g transform="matrix(1,0,0,1,0,73.19322)">
            <path d="M195.72,186.77C195.507,186.823 195.313,186.913 195.14,187.04" style="fill:none;fill-rule:nonzero;stroke:rgb(103,16,18);stroke-width:2px;"/>
        </g>
        <g transform="matrix(1,0,0,1,0,73.19322)">
            <path d="M193.72,187.77C193.507,187.823 193.313,187.913 193.14,188.04" style="fill:none;fill-rule:nonzero;stroke:rgb(103,16,18);stroke-width:2px;"/>
        </g>
        <g transform="matrix(1,0,0,1,0,73.19322)">
            <path d="M191.72,188.77C191.513,188.823 191.323,188.913 191.15,189.04" style="fill:none;fill-rule:nonzero;stroke:rgb(103,16,18);stroke-width:2px;"/>
        </g>
        <g transform="matrix(1,0,0,1,0,73.19322)">
            <path d="M189.73,189.77C189.517,189.823 189.323,189.91 189.15,190.03" style="fill:none;fill-rule:nonzero;stroke:rgb(103,16,18);stroke-width:2px;"/>
        </g>
        <g transform="matrix(1,0,0,1,0,73.19322)">
            <path d="M187.73,190.78C187.51,190.82 187.323,190.903 187.17,191.03" style="fill:none;fill-rule:nonzero;stroke:rgb(103,16,18);stroke-width:2px;"/>
        </g>
        <g transform="matrix(1,0,0,1,0,73.19322)">
            <path d="M185.72,191.78C185.507,191.827 185.323,191.91 185.17,192.03" style="fill:none;fill-rule:nonzero;stroke:rgb(103,16,18);stroke-width:2px;"/>
        </g>
        <g transform="matrix(1,0,0,1,0,73.19322)">
            <path d="M183.72,192.79C183.507,192.83 183.32,192.913 183.16,193.04" style="fill:none;fill-rule:nonzero;stroke:rgb(103,16,18);stroke-width:2px;"/>
        </g>
        <g transform="matrix(1,0,0,1,0,73.19322)">
            <path d="M181.73,193.78C181.517,193.827 181.33,193.913 181.17,194.04" style="fill:none;fill-rule:nonzero;stroke:rgb(103,16,18);stroke-width:2px;"/>
        </g>
        <g transform="matrix(1,0,0,1,0,73.19322)">
            <path d="M179.73,194.78C179.517,194.827 179.333,194.91 179.18,195.03" style="fill:none;fill-rule:nonzero;stroke:rgb(103,16,18);stroke-width:2px;"/>
        </g>
        <g transform="matrix(1,0,0,1,0,73.19322)">
            <path d="M177.73,195.78C177.517,195.82 177.34,195.903 177.2,196.03" style="fill:none;fill-rule:nonzero;stroke:rgb(103,16,18);stroke-width:2px;"/>
        </g>
        <g transform="matrix(1,0,0,1,0,73.19322)">
            <path d="M175.73,196.79C175.537,196.823 175.367,196.897 175.22,197.01" style="fill:none;fill-rule:nonzero;stroke:rgb(103,16,18);stroke-width:2px;"/>
        </g>
        <g transform="matrix(1,0,0,1,0,73.19322)">
            <path d="M171.74,198.79C171.673,198.797 171.61,198.803 171.55,198.81" style="fill:none;fill-rule:nonzero;stroke:rgb(103,16,18);stroke-width:2px;"/>
        </g>
        <g transform="matrix(1,0,0,1,0,73.19322)">
            <path d="M169.74,199.79C169.7,199.843 169.66,199.897 169.62,199.95" style="fill:none;fill-rule:nonzero;stroke:rgb(103,16,18);stroke-width:2px;"/>
        </g>
        <g transform="matrix(1,0,0,1,0,73.19322)">
            <path d="M235.28,178.66L233.96,179.32" style="fill:none;fill-rule:nonzero;stroke:rgb(103,16,18);stroke-width:2px;"/>
        </g>
        <g transform="matrix(1,0,0,1,0,73.19322)">
            <path d="M232.98,179.76L188.61,202.27C188.544,202.307 188.462,202.303 188.4,202.26C188.367,202.24 188.333,202.22 188.3,202.2" style="fill:none;fill-rule:nonzero;stroke:rgb(103,16,18);stroke-width:2px;"/>
        </g>
        <g transform="matrix(1,0,0,1,0,73.19322)">
            <path d="M187.45,202.76L186.27,203.43" style="fill:none;fill-rule:nonzero;stroke:rgb(103,16,18);stroke-width:2px;"/>
        </g>
        <g transform="matrix(1,0,0,1,0,73.19322)">
            <path d="M185.47,203.77C185.19,204.023 184.857,204.183 184.47,204.25" style="fill:none;fill-rule:nonzero;stroke:rgb(103,16,18);stroke-width:2px;"/>
        </g>
        <g transform="matrix(1,0,0,1,0,73.19322)">
            <path d="M183.2,204.95L182.48,205.27" style="fill:none;fill-rule:nonzero;stroke:rgb(103,16,18);stroke-width:2px;"/>
        </g>
        <g transform="matrix(1,0,0,1,0,73.19322)">
            <path d="M181.48,205.77C181.207,206.023 180.873,206.197 180.48,206.29" style="fill:none;fill-rule:nonzero;stroke:rgb(103,16,18);stroke-width:2px;"/>
        </g>
        <g transform="matrix(1,0,0,1,0,73.19322)">
            <path d="M179.51,206.78C179.217,207.033 178.877,207.203 178.49,207.29" style="fill:none;fill-rule:nonzero;stroke:rgb(103,16,18);stroke-width:2px;"/>
        </g>
        <g transform="matrix(1,0,0,1,0,73.19322)">
            <path d="M177.52,207.78C177.227,208.033 176.89,208.203 176.51,208.29" style="fill:none;fill-rule:nonzero;stroke:rgb(103,16,18);stroke-width:2px;"/>
        </g>
        <g transform="matrix(1,0,0,1,0,73.19322)">
            <path d="M175.52,208.78C175.193,209.093 174.86,209.26 174.52,209.28" style="fill:none;fill-rule:nonzero;stroke:rgb(103,16,18);stroke-width:2px;"/>
        </g>
        <g transform="matrix(1,0,0,1,0,73.19322)">
            <path d="M173.52,209.78C173.187,210.107 172.857,210.27 172.53,210.27" style="fill:none;fill-rule:nonzero;stroke:rgb(103,16,18);stroke-width:2px;"/>
        </g>
        <g transform="matrix(1,0,0,1,0,73.19322)">
            <path d="M171.52,210.78C171.167,211.133 170.837,211.29 170.53,211.25" style="fill:none;fill-rule:nonzero;stroke:rgb(103,16,18);stroke-width:2px;"/>
        </g>
        <g transform="matrix(1,0,0,1,0,73.19322)">
            <path d="M169.53,211.79L169.05,212.05" style="fill:none;fill-rule:nonzero;stroke:rgb(103,16,18);stroke-width:2px;"/>
        </g>
        <g transform="matrix(1,0,0,1,0,73.19322)">
            <path d="M167.67,212.85L166.72,213.27" style="fill:none;fill-rule:nonzero;stroke:rgb(103,16,18);stroke-width:2px;"/>
        </g>
        <g transform="matrix(1,0,0,1,0,73.19322)">
            <path d="M165.69,213.86L165.04,214.08" style="fill:none;fill-rule:nonzero;stroke:rgb(103,16,18);stroke-width:2px;"/>
        </g>
        <g transform="matrix(1,0,0,1,0,73.19322)">
            <path d="M163.2,214.98C163.133,215.06 163.057,215.12 162.97,215.16" style="fill:none;fill-rule:nonzero;stroke:rgb(103,16,18);stroke-width:2px;"/>
        </g>
        <g transform="matrix(1,0,0,1,0,73.19322)">
            <path d="M122.18,235.91C122.127,235.923 122.073,235.937 122.02,235.95" style="fill:none;fill-rule:nonzero;stroke:rgb(103,16,18);stroke-width:2px;"/>
        </g>
    </g>
    <g transform="matrix(1,0,0,1,0,73.19322)">
        <path d="M77.49,0C79.403,0.613 80.5,2.027 80.78,4.24C81.287,8.28 81.55,11.2 81.57,13C81.743,27.213 81.773,38.53 81.66,46.95C81.66,47.347 81.819,47.725 82.1,48C82.827,48.707 83.63,49.417 84.51,50.13C103.117,65.21 129.703,85.66 164.27,111.48C188.23,129.38 212.53,147.5 237.17,165.84C236.143,166.133 235.227,166.623 234.42,167.31C234.107,167.29 233.81,167.417 233.53,167.69L232.41,168.24C232.083,168.293 231.79,168.443 231.53,168.69L230.42,169.24C230.08,169.3 229.783,169.457 229.53,169.71L228.42,170.24C228.08,170.3 227.783,170.457 227.53,170.71L226.42,171.23C226.08,171.29 225.783,171.45 225.53,171.71L224.43,172.23C224.09,172.29 223.79,172.45 223.53,172.71L222.42,173.23C222.16,173.283 221.923,173.393 221.71,173.56L220.42,174.23C220.16,174.283 219.923,174.393 219.71,174.56L218.45,175.23C218.177,175.283 217.93,175.393 217.71,175.56L216.45,176.23C216.177,176.283 215.93,176.397 215.71,176.57L214.46,177.23C214.187,177.29 213.937,177.403 213.71,177.57L212.47,178.23C212.11,178.283 211.857,178.46 211.71,178.76C211.263,178.78 210.853,178.94 210.48,179.24C210.113,179.28 209.857,179.453 209.71,179.76C209.263,179.78 208.857,179.94 208.49,180.24C208.123,180.287 207.863,180.46 207.71,180.76C207.257,180.793 206.853,180.953 206.5,181.24C206.14,181.287 205.877,181.46 205.71,181.76C205.263,181.793 204.863,181.953 204.51,182.24C204.143,182.287 203.88,182.463 203.72,182.77C203.507,182.817 203.313,182.907 203.14,183.04C202.893,183.02 202.697,183.1 202.55,183.28C202.177,183.313 201.9,183.477 201.72,183.77C201.507,183.817 201.313,183.907 201.14,184.04C200.893,184.02 200.697,184.1 200.55,184.28C200.177,184.313 199.9,184.477 199.72,184.77C199.507,184.817 199.313,184.907 199.14,185.04C198.893,185.027 198.7,185.11 198.56,185.29C198.18,185.317 197.9,185.477 197.72,185.77C197.507,185.817 197.313,185.907 197.14,186.04C196.887,186.02 196.69,186.11 196.55,186.31C196.183,186.33 195.907,186.483 195.72,186.77C195.507,186.823 195.313,186.913 195.14,187.04C194.893,187.027 194.697,187.11 194.55,187.29C194.183,187.323 193.907,187.483 193.72,187.77C193.507,187.823 193.313,187.913 193.14,188.04C192.893,188.027 192.697,188.117 192.55,188.31C192.183,188.33 191.907,188.483 191.72,188.77C191.513,188.823 191.323,188.913 191.15,189.04C190.903,189.033 190.707,189.117 190.56,189.29C190.193,189.33 189.917,189.49 189.73,189.77C189.517,189.823 189.323,189.91 189.15,190.03C188.903,190.03 188.707,190.117 188.56,190.29C188.193,190.33 187.917,190.493 187.73,190.78C187.51,190.82 187.323,190.903 187.17,191.03C186.543,191.07 186.06,191.32 185.72,191.78C185.507,191.827 185.323,191.91 185.17,192.03C184.543,192.07 184.06,192.323 183.72,192.79C183.507,192.83 183.32,192.913 183.16,193.04C182.547,193.093 182.07,193.34 181.73,193.78C181.517,193.827 181.33,193.913 181.17,194.04C180.557,194.087 180.077,194.333 179.73,194.78C179.517,194.827 179.333,194.91 179.18,195.03C178.56,195.09 178.077,195.34 177.73,195.78C177.517,195.82 177.34,195.903 177.2,196.03C176.58,196.09 176.09,196.343 175.73,196.79C175.537,196.823 175.367,196.897 175.22,197.01C174.507,197.157 173.853,197.48 173.26,197.98C172.62,198.087 172.113,198.357 171.74,198.79C171.673,198.797 171.61,198.803 171.55,198.81C170.803,198.99 170.2,199.317 169.74,199.79C169.7,199.843 169.66,199.897 169.62,199.95L114.51,227.32C114.419,227.365 114.318,227.389 114.216,227.389C113.953,227.389 113.714,227.232 113.61,226.99C111.95,222.99 108.74,219.15 105.04,214.12C92.913,197.633 77.463,177.163 58.69,152.71C51.683,143.583 42.597,132.237 31.43,118.67C17.07,101.217 7.927,89.91 4,84.75C1.467,81.41 0.133,77.013 0,71.56L0,69.3C1.52,58.14 7.26,48.29 15.1,40.6C16.793,38.933 20.17,35.813 25.23,31.24C25.93,30.613 26.34,29.53 26.46,27.99C27.053,20.403 27.623,12.51 28.17,4.31C28.174,4.248 28.18,4.185 28.186,4.123C28.437,1.855 30.514,0.195 32.788,0.446C32.849,0.453 32.909,0.461 32.97,0.47L33.05,0.48C35.566,0.878 37.447,3.048 37.48,5.59L37.75,26.64C37.758,26.865 37.945,27.046 38.17,27.046C38.193,27.046 38.217,27.044 38.24,27.04C44.59,25.93 49.65,25.74 55.45,29.33C55.577,29.41 59.343,31.887 66.75,36.76C67.503,37.253 68.18,37.583 68.78,37.75C68.888,37.779 68.999,37.794 69.11,37.794C69.786,37.794 70.346,37.246 70.36,36.57C70.367,36.057 70.557,27.367 70.93,10.5C70.95,9.847 71.143,7.863 71.51,4.55C71.77,2.243 72.903,0.727 74.91,0L77.49,0ZM25.99,44.48C21.59,46.96 18.23,52.41 15.85,56.87C12.81,62.57 11.463,68.723 11.81,75.33C11.83,75.682 11.89,76.031 11.99,76.37C12.637,78.443 13.707,80.423 15.2,82.31C21.213,89.937 27.79,97.943 34.93,106.33C36.157,107.77 37.437,109.043 38.77,110.15C38.796,110.171 38.824,110.191 38.853,110.209C39.21,110.425 39.679,110.314 39.892,109.963C39.91,109.933 39.926,109.902 39.94,109.87C41.89,105.32 43.23,101.02 45.35,96.98C53.743,80.96 66.577,70.213 83.85,64.74C84.1,64.658 84.27,64.423 84.27,64.16C84.27,63.984 84.193,63.816 84.06,63.7C73.62,54.887 62.81,46.533 51.63,38.64C51.24,38.362 50.802,38.162 50.34,38.05C46.753,37.15 42.83,37.01 38.57,37.63C38.345,37.665 38.178,37.857 38.18,38.08C38.12,48.113 37.853,58.883 37.38,70.39C37.22,74.42 34.88,78.57 30.31,76.28C26.93,74.58 26.89,70.99 26.85,66.85C26.75,57.857 26.687,50.53 26.66,44.87C26.659,44.624 26.456,44.423 26.21,44.423C26.133,44.423 26.057,44.442 25.99,44.48ZM64.21,88.37C57.74,94.8 52.46,102.46 51.45,111.61C50.91,116.5 50.92,122.52 53.24,126.8C56.79,133.38 66.69,136.18 73.48,135.49C78.26,135.003 82.287,133.91 85.56,132.21C89.907,129.943 94.153,126.75 98.3,122.63C102.447,118.503 105.66,114.27 107.94,109.93C109.66,106.663 110.777,102.643 111.29,97.87C112.01,91.08 109.26,81.17 102.69,77.59C98.43,75.25 92.41,75.21 87.51,75.72C78.36,76.68 70.68,81.93 64.21,88.37Z" style="fill:rgb(206,31,35);fill-rule:nonzero;"/>
    </g>
    <g transform="matrix(1,0,0,1,0,73.19322)">
        <path d="M235.28,178.66L233.96,179.32C233.187,179.28 232.86,179.427 232.98,179.76L188.61,202.27C188.544,202.307 188.462,202.303 188.4,202.26C188.367,202.24 188.333,202.22 188.3,202.2C187.733,202.153 187.45,202.34 187.45,202.76L186.27,203.43C186.303,203.177 186.13,203.133 185.75,203.3C185.503,203.413 185.41,203.57 185.47,203.77C185.19,204.023 184.857,204.183 184.47,204.25C183.87,204.097 183.447,204.33 183.2,204.95L182.48,205.27C181.807,205.143 181.473,205.31 181.48,205.77C181.207,206.023 180.873,206.197 180.48,206.29C180.16,206.183 179.873,206.21 179.62,206.37C179.473,206.463 179.437,206.6 179.51,206.78C179.217,207.033 178.877,207.203 178.49,207.29C178.17,207.183 177.88,207.21 177.62,207.37C177.467,207.463 177.433,207.6 177.52,207.78C177.227,208.033 176.89,208.203 176.51,208.29C176.183,208.197 175.887,208.223 175.62,208.37C175.467,208.463 175.433,208.6 175.52,208.78C175.193,209.093 174.86,209.26 174.52,209.28C173.773,209.187 173.44,209.353 173.52,209.78C173.187,210.107 172.857,210.27 172.53,210.27C171.77,210.203 171.433,210.373 171.52,210.78C171.167,211.133 170.837,211.29 170.53,211.25C169.75,211.217 169.417,211.397 169.53,211.79L169.05,212.05C167.71,212.237 167.25,212.503 167.67,212.85L166.72,213.27C165.58,213.29 165.237,213.487 165.69,213.86L165.04,214.08C164.06,214.12 163.447,214.42 163.2,214.98C163.133,215.06 163.057,215.12 162.97,215.16C162.09,215.107 161.497,215.383 161.19,215.99C160.323,216.11 159.633,216.41 159.12,216.89L122.18,235.91C122.127,235.923 122.073,235.937 122.02,235.95L85.21,255.15C85.134,255.192 85.086,255.273 85.086,255.36C85.086,255.447 85.134,255.528 85.21,255.57C138.25,284.63 184.02,309.63 229.31,333.16C229.657,333.336 230.065,333.34 230.41,333.17L307.51,294.93C309.211,294.092 311.299,294.801 312.14,296.5L313.05,298.32C313.844,299.926 313.303,301.894 311.8,302.87C308.487,305.03 306.18,306.453 304.88,307.14C282.667,318.913 259.547,330.833 235.52,342.9C235.268,343.028 235.109,343.288 235.11,343.57L234.95,374.12C234.95,374.121 234.95,374.121 234.95,374.122C234.95,374.182 235,374.232 235.06,374.232C235.077,374.232 235.095,374.228 235.11,374.22L260.34,361.7C260.731,361.512 260.981,361.114 260.98,360.68L261.06,344.67C261.067,344.324 261.258,344.007 261.56,343.84C268.38,340.147 274.893,336.91 281.1,334.13C282.34,333.577 284.217,333.08 286.73,332.64C289.79,332.107 291.417,333.337 291.61,336.33C291.79,339.037 292.04,341.577 292.36,343.95C292.385,344.127 292.538,344.26 292.716,344.26C292.766,344.26 292.815,344.25 292.86,344.23L308.53,337.08C308.98,336.875 309.469,336.768 309.963,336.768C311.609,336.768 313.036,337.945 313.35,339.56L313.54,340.58C314.059,343.241 312.723,345.943 310.29,347.15L294.01,355.22C293.583,355.436 293.301,355.866 293.27,356.35L291.81,379.31C291.772,379.88 291.462,380.395 290.98,380.69C282.96,385.583 274.657,389.79 266.07,393.31C265.744,393.447 265.383,393.485 265.03,393.42C261.75,392.83 261.12,389.17 261.02,386.5C260.873,382.787 260.657,378.673 260.37,374.16C260.349,373.869 260.103,373.64 259.811,373.64C259.724,373.64 259.638,373.661 259.56,373.7L235.31,385.72C235.017,385.867 234.831,386.165 234.83,386.49C234.777,418.277 234.817,448.28 234.95,476.5C234.977,482.767 235.13,489.95 235.41,498.05C235.415,498.117 235.472,498.17 235.54,498.17C235.557,498.17 235.574,498.167 235.59,498.16L307.36,462.56C307.882,462.302 308.456,462.167 309.038,462.167C310.759,462.167 312.273,463.343 312.7,465.01L312.79,465.33C313.583,468.03 312.351,470.941 309.86,472.25C283.77,485.96 257.01,500.07 230.78,512.33C230.442,512.486 230.064,512.532 229.7,512.46C228.313,512.187 227.207,511.827 226.38,511.38C180.493,486.707 137.027,463.163 95.98,440.75C88.92,436.89 80.113,431.92 69.56,425.84C68.507,425.232 67.852,424.112 67.84,422.9C67.267,366.847 66.927,315.38 66.82,268.5C66.813,265.16 66.947,260.26 67.22,253.8C67.27,252.665 67.929,251.642 68.94,251.13L169.62,199.95C169.66,199.897 169.7,199.843 169.74,199.79C170.487,199.75 171.09,199.423 171.55,198.81C171.61,198.803 171.673,198.797 171.74,198.79C172.373,198.777 172.88,198.507 173.26,197.98C174.1,197.92 174.753,197.597 175.22,197.01C175.367,196.897 175.537,196.823 175.73,196.79C176.39,196.757 176.88,196.503 177.2,196.03C177.34,195.903 177.517,195.82 177.73,195.78C178.377,195.753 178.86,195.503 179.18,195.03C179.333,194.91 179.517,194.827 179.73,194.78C180.357,194.747 180.837,194.5 181.17,194.04C181.33,193.913 181.517,193.827 181.73,193.78C182.31,193.78 182.787,193.533 183.16,193.04C183.32,192.913 183.507,192.83 183.72,192.79C184.36,192.763 184.843,192.51 185.17,192.03C185.323,191.91 185.507,191.827 185.72,191.78C186.36,191.727 186.843,191.477 187.17,191.03C187.323,190.903 187.51,190.82 187.73,190.78C188.137,190.767 188.413,190.603 188.56,190.29C188.813,190.29 189.01,190.203 189.15,190.03C189.323,189.91 189.517,189.823 189.73,189.77C190.137,189.763 190.413,189.603 190.56,189.29C190.813,189.283 191.01,189.2 191.15,189.04C191.323,188.913 191.513,188.823 191.72,188.77C192.1,188.75 192.377,188.597 192.55,188.31C192.803,188.29 193,188.2 193.14,188.04C193.313,187.913 193.507,187.823 193.72,187.77C194.14,187.757 194.417,187.597 194.55,187.29C194.797,187.27 194.993,187.187 195.14,187.04C195.313,186.913 195.507,186.823 195.72,186.77C196.1,186.743 196.377,186.59 196.55,186.31C196.797,186.283 196.993,186.193 197.14,186.04C197.313,185.907 197.507,185.817 197.72,185.77C198.193,185.83 198.473,185.67 198.56,185.29C198.793,185.263 198.987,185.18 199.14,185.04C199.313,184.907 199.507,184.817 199.72,184.77C200.22,184.797 200.497,184.633 200.55,184.28C200.797,184.267 200.993,184.187 201.14,184.04C201.313,183.907 201.507,183.817 201.72,183.77C202.22,183.797 202.497,183.633 202.55,183.28C202.783,183.253 202.98,183.173 203.14,183.04C203.313,182.907 203.507,182.817 203.72,182.77C204.267,182.777 204.53,182.6 204.51,182.24C204.863,181.953 205.263,181.793 205.71,181.76C206.27,181.767 206.533,181.593 206.5,181.24C206.853,180.953 207.257,180.793 207.71,180.76C208.283,180.76 208.543,180.587 208.49,180.24C208.857,179.94 209.263,179.78 209.71,179.76C210.277,179.753 210.533,179.58 210.48,179.24C210.853,178.94 211.263,178.78 211.71,178.76C212.283,178.753 212.537,178.577 212.47,178.23L213.71,177.57C213.697,177.783 213.867,177.813 214.22,177.66C214.467,177.553 214.547,177.41 214.46,177.23L215.71,176.57C215.703,176.783 215.87,176.813 216.21,176.66C216.457,176.547 216.537,176.403 216.45,176.23L217.71,175.56C217.703,175.78 217.87,175.81 218.21,175.65C218.45,175.543 218.53,175.403 218.45,175.23L219.71,174.56C219.703,174.78 219.863,174.807 220.19,174.64C220.423,174.52 220.5,174.383 220.42,174.23L221.71,173.56C221.71,173.787 221.867,173.813 222.18,173.64C222.393,173.52 222.473,173.383 222.42,173.23L223.53,172.71C224.03,172.85 224.33,172.69 224.43,172.23L225.53,171.71C226.017,171.843 226.313,171.683 226.42,171.23L227.53,170.71C227.997,170.843 228.293,170.687 228.42,170.24L229.53,169.71C229.99,169.843 230.287,169.687 230.42,169.24L231.53,168.69C232.017,168.817 232.31,168.667 232.41,168.24L233.53,167.69C233.943,167.81 234.24,167.683 234.42,167.31C235.227,166.623 236.143,166.133 237.17,165.84L280.43,144.18C280.73,144.03 281.086,144.037 281.38,144.2C314.1,161.733 349.233,180.577 386.78,200.73C387.153,200.93 388.07,201.65 389.53,202.89C389.755,203.082 389.945,203.316 390.09,203.58C391.283,205.753 390.93,207.827 389.03,209.8C387.44,211.46 386.15,211.41 384.05,210.46C380.503,208.86 376.28,206.747 371.38,204.12C336.067,185.2 306.033,169.223 281.28,156.19C280.872,155.97 280.38,155.963 279.96,156.17L235.28,178.66ZM77.66,292.89C77.659,293.353 77.913,293.78 78.32,294L222.52,372.4C222.704,372.5 222.91,372.552 223.12,372.552C223.808,372.552 224.376,371.988 224.38,371.3L224.52,344.17C224.521,343.707 224.267,343.28 223.86,343.06L79.66,264.65C79.476,264.55 79.27,264.498 79.06,264.498C78.372,264.498 77.804,265.062 77.8,265.75L77.66,292.89ZM78.22,305.92L77.66,416.81C77.654,417.851 78.219,418.816 79.13,419.32C115.69,439.667 155.16,461.217 197.54,483.97C204.36,487.637 212.793,492.053 222.84,497.22C222.955,497.279 223.083,497.309 223.212,497.309C223.639,497.309 223.998,496.976 224.03,496.55C224.303,492.843 224.463,489.243 224.51,485.75C224.823,460.43 224.827,431.017 224.52,397.51C224.493,394.23 224.297,390.41 223.93,386.05C223.861,385.238 223.387,384.512 222.67,384.12L78.52,305.74C78.49,305.722 78.455,305.713 78.42,305.713C78.31,305.713 78.22,305.803 78.22,305.913C78.22,305.915 78.22,305.918 78.22,305.92ZM272.32,379.09L281.78,374.4C282.106,374.239 282.315,373.91 282.32,373.55C282.593,362.97 282.693,355.557 282.62,351.31C282.593,349.89 282.377,348.287 281.97,346.5C281.818,345.84 281.225,345.369 280.547,345.369C280.323,345.369 280.101,345.42 279.9,345.52L271.7,349.58C271.377,349.739 271.171,350.07 271.17,350.43L271.17,378.38C271.17,378.442 271.176,378.504 271.191,378.564C271.29,378.986 271.723,379.251 272.15,379.151C272.209,379.137 272.266,379.116 272.32,379.09Z" style="fill:white;fill-rule:nonzero;"/>
    </g>
    <g transform="matrix(1,0,0,1,0,73.19322)">
        <path d="M122.02,235.95C122.073,235.937 122.127,235.923 122.18,235.91L159.07,217.16L159.07,217.14C159.09,217.06 159.107,216.977 159.12,216.89C159.82,216.91 160.51,216.61 161.19,215.99C161.803,215.857 162.397,215.58 162.97,215.16C163.057,215.12 163.133,215.06 163.2,214.98C163.853,214.827 164.467,214.527 165.04,214.08L165.69,213.86L166.72,213.27L167.67,212.85L169.05,212.05L169.53,211.79C169.923,211.75 170.257,211.57 170.53,211.25C170.837,211.29 171.167,211.133 171.52,210.78C171.9,210.747 172.237,210.577 172.53,210.27C172.857,210.27 173.187,210.107 173.52,209.78C173.887,209.733 174.22,209.567 174.52,209.28C174.86,209.26 175.193,209.093 175.52,208.78C175.887,208.713 176.217,208.55 176.51,208.29C176.89,208.203 177.227,208.033 177.52,207.78C177.887,207.707 178.21,207.543 178.49,207.29C178.877,207.203 179.217,207.033 179.51,206.78C179.877,206.707 180.2,206.543 180.48,206.29C180.873,206.197 181.207,206.023 181.48,205.77C181.86,205.703 182.193,205.537 182.48,205.27L183.2,204.95C183.687,204.803 184.11,204.57 184.47,204.25C184.857,204.183 185.19,204.023 185.47,203.77L186.27,203.43L187.45,202.76C187.823,202.693 188.107,202.507 188.3,202.2C188.333,202.22 188.367,202.24 188.4,202.26C188.462,202.303 188.544,202.307 188.61,202.27L232.98,179.76L233.96,179.32L235.28,178.66L246.01,173.68C246.311,173.541 246.662,173.556 246.95,173.72C247.977,174.293 249.007,174.957 250.04,175.71C284.053,200.797 302.05,214.077 304.03,215.55C307.75,218.31 310.15,220.74 313.47,223.81C319.47,229.38 321.52,237.28 318.29,244.59C315.62,250.63 308.47,255.76 302.43,258.9C296.323,262.073 289.627,264.703 282.34,266.79C250.49,275.93 214.88,275.9 182.38,270.33C171.347,268.437 159.71,264.807 147.47,259.44C140.87,256.55 134.15,252.11 129.57,247.19C125.243,242.53 122.45,239.387 121.19,237.76C120.81,237.273 121.087,236.67 122.02,235.95Z" style="fill:rgb(206,31,35);fill-rule:nonzero;"/>
    </g>
    <g transform="matrix(1,0,0,1,0,73.19322)">
        <path d="M448.12,200.92C448.285,201.137 448.579,201.216 448.83,201.11C454.01,199.03 460.22,196.14 465.74,198.09C466.887,198.497 468.523,198.26 470.65,197.38C473.243,196.307 484.087,191.603 503.18,183.27C511.733,179.537 518.62,181.217 523.84,188.31C524.576,189.313 524.994,190.515 525.04,191.76C525.22,197.21 525.68,205 525.7,212.39C525.953,288.67 526.03,366.063 525.93,444.57C525.93,444.854 525.872,445.133 525.76,445.39C523.793,450.117 521.13,454.303 517.77,457.95C517.439,458.314 517.05,458.618 516.62,458.85C506.36,464.37 496.21,469.12 480.85,476.32C475.883,478.653 441.13,494.653 376.59,524.32C363.997,530.107 352.437,535.03 341.91,539.09C341.441,539.268 340.942,539.357 340.44,539.35C337.353,539.29 334.117,538.343 330.73,536.51C329.257,535.71 328.327,535.013 327.94,534.42C327.787,534.181 327.666,533.919 327.58,533.64C326.46,530.08 325.833,526.287 325.7,522.26C325.15,506.26 324.87,485.77 324.87,466.25L324.87,275.74C324.87,275.271 324.962,274.806 325.14,274.37C326.78,270.337 328.853,266.66 331.36,263.34C331.717,262.871 332.158,262.474 332.66,262.17C336.573,259.803 341.28,257.343 346.78,254.79C348.767,253.87 357.667,249.863 373.48,242.77C376.43,241.45 378.26,237.6 381.07,233.32C381.91,232.04 383.527,230.743 385.92,229.43C389.42,227.51 393.523,225.427 398.23,223.18C398.621,222.994 398.887,222.618 398.93,222.19C400.12,211.08 404.79,201.01 414.02,194.33C422.85,187.95 435.05,187.01 443.3,195.43C445.127,197.29 446.733,199.12 448.12,200.92ZM473.09,219.69C483.097,215.39 489.757,212.607 493.07,211.34C497.27,209.73 502.79,207.32 503.18,214.36C503.453,219.253 503.607,224.39 503.64,229.77C504.007,293.497 504.01,356.493 503.65,418.76C503.637,422.047 503.497,428.207 503.23,437.24C503.21,437.747 503.033,439.123 502.7,441.37C502.651,441.684 502.449,441.956 502.16,442.1C462.6,461.71 421.86,480.25 377.95,500.18C375.163,501.447 366.603,505.153 352.27,511.3C351.39,511.68 350.123,511.447 348.47,510.6C348.159,510.444 347.948,510.135 347.91,509.78C347.32,503.62 347.04,496.97 346.94,486.75C346.267,414.723 346.02,358.89 346.2,319.25C346.273,302.757 346.41,290.72 346.61,283.14C346.643,282.087 346.917,280.783 347.43,279.23C347.507,279 347.673,278.809 347.89,278.7L377.36,264.09C377.665,263.938 377.859,263.624 377.86,263.28L377.91,252.9C377.91,252.899 377.91,252.899 377.91,252.898C377.91,252.739 377.779,252.608 377.62,252.608C377.582,252.608 377.545,252.616 377.51,252.63C365.623,257.703 353.667,263.107 341.64,268.84C339.42,269.9 338.2,270.96 337.68,273.17C336.987,276.097 336.563,280.587 336.41,286.64C336.13,297.333 335.977,310.37 335.95,325.75C335.797,415.877 335.887,475.46 336.22,504.5C336.353,515.86 336.423,523.14 336.43,526.34C336.43,526.697 336.546,527.044 336.76,527.33C337.273,528.01 338.147,528.433 339.38,528.6C339.643,528.633 339.91,528.606 340.16,528.52C347.5,525.813 355.53,522.473 364.25,518.5C370.437,515.673 410.67,497.237 484.95,463.19C495.49,458.35 504.457,453.817 511.85,449.59C511.87,449.577 511.89,449.56 511.91,449.54L514.5,447.2C514.73,446.99 514.863,446.693 514.87,446.38C515.097,375.553 515.35,304.083 515.63,231.97C515.683,218.003 515.333,205.13 514.58,193.35C514.56,192.976 514.246,192.679 513.871,192.679C513.857,192.679 513.844,192.679 513.83,192.68C510.117,192.86 506.447,193.673 502.82,195.12C493.387,198.86 483.077,203.55 471.89,209.19C471.416,209.428 471.14,209.945 471.2,210.48L472.17,219.15C472.174,219.182 472.18,219.213 472.188,219.244C472.283,219.599 472.648,219.815 472.998,219.722C473.03,219.714 473.06,219.703 473.09,219.69ZM389.13,269.86C389.13,269.86 389.13,269.86 389.13,269.86C389.13,270.047 389.283,270.2 389.47,270.2C389.518,270.2 389.566,270.19 389.61,270.17L460.25,237.94C460.683,237.738 460.961,237.304 460.96,236.83C460.887,229.757 460.693,222.503 460.38,215.07C460.25,212.24 459.71,207.92 455.55,209.81C454.337,210.363 451.2,211.717 446.14,213.87C443.82,214.86 440.38,215.75 439.36,212.64C437.87,208.13 436.75,203.86 433.65,201.41C429.43,198.07 424.02,199.8 420,202.8C411.16,209.37 409.57,219.2 408.5,229.58C408.469,229.879 408.287,230.14 408.02,230.27L389.92,239.25C389.529,239.438 389.28,239.84 389.28,240.28L389.13,269.86ZM358.37,497.6L492.96,436.18C493.216,436.066 493.381,435.81 493.38,435.53C493.66,374.91 493.69,315.067 493.47,256C493.423,243.873 493.233,233.123 492.9,223.75C492.893,223.547 492.724,223.383 492.52,223.383C492.472,223.383 492.425,223.392 492.38,223.41L472.5,231.42C472.159,231.558 471.939,231.898 471.95,232.27C472.02,235.43 472.27,239.97 469.68,243.19C468.407,244.777 465.783,246.487 461.81,248.32C430.223,262.94 406.423,273.883 390.41,281.15C388.197,282.15 385.98,282.673 383.76,282.72C382.167,282.757 380.699,281.837 380.04,280.39L378.96,278.02C378.549,277.117 377.545,276.628 376.58,276.86C371.39,278.12 365.44,281.3 357.27,285.09C357.05,285.195 356.906,285.416 356.9,285.66C356.78,359.05 356.41,428.83 357.73,497.2C357.734,497.444 357.936,497.642 358.18,497.642C358.246,497.642 358.31,497.628 358.37,497.6Z" style="fill:white;fill-rule:nonzero;"/>
    </g>
    <g transform="matrix(0.489382,-0.872069,0.872069,0.489382,424.72,289.92322)">
        <ellipse cx="0" cy="0" rx="7.77" ry="5.45" style="fill:white;"/>
    </g>
    <g transform="matrix(1,0,0,1,0,73.19322)">
        <path d="M441.2,294.37C453.2,288.93 463.097,284.747 470.89,281.82C474.81,280.34 476.54,286.13 475.07,288.97C474.929,289.247 474.727,289.49 474.48,289.68C473.167,290.727 471.587,291.687 469.74,292.56C466,294.327 457.92,298.03 445.5,303.67C433.507,309.103 423.61,313.287 415.81,316.22C411.89,317.69 410.16,311.91 411.64,309.06C411.778,308.784 411.976,308.541 412.22,308.35C413.533,307.303 415.113,306.343 416.96,305.47C420.7,303.703 428.78,300.003 441.2,294.37Z" style="fill:white;fill-rule:nonzero;"/>
    </g>
    <g transform="matrix(1,0,0,1,0,73.19322)">
        <path d="M394.9,307.58C396.218,307.27 397.593,307.841 398.3,308.99C401.36,314 401.2,322.25 400.44,327.72C399.94,331.34 396.74,333.67 393.48,335.39C389.34,337.58 384.41,339.97 379.93,341.08C379.724,341.133 379.512,341.157 379.3,341.15C375.37,341.1 374.36,337.39 374.11,334.19C373.75,329.477 373.953,324.743 374.72,319.99C375.007,318.23 375.507,316.803 376.22,315.71C376.424,315.394 376.698,315.127 377.02,314.93C382.807,311.477 388.767,309.027 394.9,307.58ZM385.35,322.54C384.66,323.86 384.97,326.41 385.46,327.71C385.591,328.067 385.934,328.306 386.314,328.306C386.447,328.306 386.579,328.277 386.7,328.22C388.267,327.487 389.413,326.427 390.14,325.04C390.86,323.653 391.073,322.107 390.78,320.4C390.707,319.963 390.325,319.64 389.882,319.64C389.804,319.64 389.726,319.65 389.65,319.67C388.31,320.02 386.03,321.22 385.35,322.54Z" style="fill:white;fill-rule:nonzero;"/>
    </g>
    <g transform="matrix(1,0,0,1,0,73.19322)">
        <path d="M417.09,355.69C416.612,355.864 416.106,355.953 415.597,355.953C413.708,355.953 412.022,354.727 411.44,352.93L411.41,352.82C410.62,350.382 411.768,347.707 414.08,346.6C430.853,338.553 445.967,331.663 459.42,325.93C461.833,324.903 465.107,323.677 469.24,322.25C470.307,321.883 471.71,321.707 473.45,321.72C476.52,321.75 475.8,326.61 474.84,328.31C474.664,328.624 474.4,328.883 474.08,329.06C460.09,336.7 444.74,343.59 426.37,351.86C422.897,353.427 419.803,354.703 417.09,355.69Z" style="fill:white;fill-rule:nonzero;"/>
    </g>
    <g transform="matrix(1,0,0,1,0,73.19322)">
        <path d="M399.22,372.01C398.741,373.078 397.85,373.91 396.75,374.32L381.47,380.03C381.324,380.083 381.172,380.113 381.02,380.12C376.953,380.373 374.69,378.343 374.23,374.03C373.883,370.837 373.853,366.373 374.14,360.64C374.287,357.62 375.553,355.48 377.94,354.22C384.593,350.7 390.3,348.32 395.06,347.08C399.07,346.02 400.39,350.35 400.61,353.6C401,359.55 401.52,366.93 399.22,372.01ZM385.62,361.62C384.053,363.147 383.76,364.983 384.74,367.13C384.919,367.533 385.358,367.759 385.79,367.67C387.07,367.403 388.28,366.717 389.42,365.61C390.987,364.077 391.28,362.24 390.3,360.1C390.121,359.697 389.682,359.471 389.25,359.56C387.97,359.827 386.76,360.513 385.62,361.62Z" style="fill:white;fill-rule:nonzero;"/>
    </g>
    <g transform="matrix(1,0,0,1,0,73.19322)">
        <path d="M179.67,379.06C180.61,385.913 180.947,395.317 180.68,407.27C180.587,411.297 180.367,414.123 180.02,415.75C179.948,416.078 179.793,416.381 179.57,416.63C176.82,419.73 172.93,418.75 169.33,416.96C152.837,408.793 136.853,400.113 121.38,390.92C119.86,390.013 119.08,388.533 119.04,386.48C118.827,373.473 118.903,364.23 119.27,358.75C119.457,355.997 119.703,353.81 120.01,352.19C120.35,350.377 121.727,349.48 124.14,349.5C124.405,349.507 124.669,349.561 124.92,349.66C129.32,351.447 132.34,352.747 133.98,353.56C147.613,360.313 159.837,366.727 170.65,372.8C173.943,374.647 176.73,376.37 179.01,377.97C179.373,378.224 179.613,378.62 179.67,379.06ZM169.27,406.04C169.372,406.097 169.486,406.127 169.603,406.127C169.952,406.127 170.248,405.858 170.28,405.51C170.9,398.597 170.887,392.107 170.24,386.04C170.103,384.759 169.343,383.624 168.21,383.01L130,362.23C129.895,362.174 129.779,362.145 129.66,362.145C129.267,362.145 128.943,362.467 128.94,362.86L128.83,383.59C128.83,383.689 128.885,383.778 128.97,383.82L169.27,406.04Z" style="fill:white;fill-rule:nonzero;"/>
    </g>
    <g transform="matrix(1,0,0,1,0,73.19322)">
        <path d="M441.04,373.56C452.98,368.1 462.83,363.9 470.59,360.96C474.5,359.48 476.24,365.24 474.78,368.08C474.642,368.357 474.443,368.599 474.2,368.79C472.893,369.837 471.32,370.797 469.48,371.67C465.76,373.443 457.717,377.157 445.35,382.81C433.41,388.27 423.56,392.47 415.8,395.41C411.89,396.89 410.15,391.13 411.61,388.29C411.748,388.013 411.947,387.771 412.19,387.58C413.497,386.533 415.07,385.573 416.91,384.7C420.63,382.927 428.673,379.213 441.04,373.56Z" style="fill:white;fill-rule:nonzero;"/>
    </g>
    <g transform="matrix(1,0,0,1,0,73.19322)">
        <path d="M382.02,392.03C385.787,390.197 390.167,388.467 395.16,386.84C395.422,386.754 395.697,386.717 395.97,386.73C401.83,386.98 400.91,399.02 400.7,402.61C400.513,405.923 400.21,408.117 399.79,409.19C398.55,412.37 395.66,413.2 392.72,414.63C388.953,416.463 384.57,418.193 379.57,419.82C379.311,419.905 379.04,419.942 378.77,419.93C372.91,419.68 373.83,407.64 374.04,404.05C374.227,400.737 374.53,398.543 374.95,397.47C376.19,394.29 379.07,393.46 382.02,392.03ZM390.202,399.585C389.013,398.656 386.757,399.528 385.203,401.517C383.649,403.505 383.349,405.906 384.538,406.835C385.727,407.764 387.983,406.892 389.537,404.903C391.091,402.915 391.391,400.514 390.202,399.585Z" style="fill:white;fill-rule:nonzero;"/>
    </g>
    <g transform="matrix(1,0,0,1,0,73.19322)">
        <path d="M445.39,422.37C436.037,426.837 426.253,431.083 416.04,435.11C416.005,435.124 415.97,435.137 415.935,435.15C414.096,435.808 412.043,434.841 411.387,433.007C411.374,432.972 411.362,432.936 411.35,432.9L411.28,432.68C410.606,430.593 411.474,428.298 413.36,427.18C422.26,421.92 427.9,419.55 441.18,413.2C450.533,408.733 460.32,404.483 470.54,400.45C470.574,400.437 470.608,400.424 470.642,400.412C472.481,399.753 474.534,400.72 475.191,402.554C475.204,402.592 475.218,402.631 475.23,402.67L475.3,402.89C475.974,404.977 475.106,407.272 473.22,408.39C464.32,413.65 458.68,416.01 445.39,422.37Z" style="fill:white;fill-rule:nonzero;"/>
    </g>
    <g transform="matrix(1,0,0,1,0,73.19322)">
        <path d="M393.48,453.94C389.96,455.76 386.143,457.387 382.03,458.82C376.06,460.9 374.92,457.38 374.43,452.2C373.95,447.107 373.997,442.123 374.57,437.25C374.92,434.23 378.45,433.02 381.51,431.44C385.03,429.62 388.847,427.993 392.96,426.56C398.93,424.48 400.07,428 400.56,433.18C401.04,438.273 400.997,443.253 400.43,448.12C400.07,451.15 396.54,452.35 393.48,453.94ZM390.02,438.88C388.087,439.233 386.407,439.887 384.98,440.84C384.696,441.027 384.484,441.31 384.38,441.64C383.993,442.873 383.89,444.027 384.07,445.1C384.079,445.155 384.092,445.209 384.107,445.263C384.378,446.213 385.512,446.735 386.62,446.419C386.681,446.402 386.741,446.382 386.8,446.36C389.847,445.22 391.187,442.927 390.82,439.48C390.819,439.474 390.818,439.468 390.818,439.462C390.764,439.087 390.415,438.822 390.046,438.876C390.037,438.877 390.029,438.878 390.02,438.88Z" style="fill:white;fill-rule:nonzero;"/>
    </g>
    <g transform="matrix(1,0,0,1,612.892431,-298.146423)">
        <path d="M311.82,616.76L320.96,616.82C321.448,616.82 321.85,617.222 321.85,617.71L321.42,699.77C321.415,700.254 321.014,700.65 320.53,700.65L311.81,700.61C311.326,700.605 310.93,700.204 310.93,699.72L310.93,617.65C310.93,617.162 311.332,616.76 311.82,616.76Z" style="fill:white;fill-rule:nonzero;"/>
    </g>
    <g transform="matrix(1,0,0,1,612.892431,-298.146423)">
        <path d="M188.32,640.6L197.64,640.6C198.134,640.6 198.54,640.198 198.54,639.71L198.61,626.46C198.61,626.098 198.912,625.8 199.28,625.8L209.24,625.8C209.553,625.8 209.81,626.057 209.81,626.37L209.81,639.22C209.81,639.549 210.076,639.82 210.4,639.82L226.33,639.82C226.599,639.82 226.82,640.037 226.82,640.3L226.82,648.33C226.82,648.604 226.599,648.83 226.33,648.83L210.38,648.83C210.067,648.83 209.81,649.087 209.81,649.4L209.81,685.53C209.81,685.9 209.962,686.255 210.23,686.51L214.55,690.62C215.404,691.43 216.58,691.815 217.75,691.67L225.73,690.68C226.931,690.527 228.115,691.097 228.74,692.13C229.287,693.03 229.747,694.43 230.12,696.33C230.188,696.7 230.05,697.08 229.76,697.32C225.56,700.83 218,701.02 212.89,700.37C207.72,699.71 202.44,695.52 200.27,690.74C199.483,689.02 199.057,685.67 198.99,680.69C198.823,668.63 198.763,658.22 198.81,649.46C198.81,649.109 198.521,648.82 198.17,648.82L188.18,648.82C187.972,648.82 187.8,648.648 187.8,648.44L187.8,641.13C187.8,640.839 188.035,640.6 188.32,640.6Z" style="fill:white;fill-rule:nonzero;"/>
    </g>
    <g transform="matrix(1,0,0,1,612.892431,-298.146423)">
        <path d="M494.73,701L488.27,701L481.2,700.34C480.906,700.312 480.673,700.074 480.65,699.78C480.357,696.127 480.193,693.283 480.16,691.25C479.933,675.003 479.863,657.753 479.95,639.5C479.955,639.12 480.27,638.81 480.65,638.81L493.9,638.81C493.9,638.81 493.901,638.81 493.901,638.81C494.175,638.81 494.401,639.036 494.401,639.31C494.401,639.32 494.401,639.33 494.4,639.34L494.03,645.07C494.03,645.079 494.029,645.089 494.029,645.098C494.029,645.395 494.273,645.638 494.569,645.638C494.68,645.638 494.789,645.604 494.88,645.54C500.81,641.35 507.37,638.18 514.49,637.85C514.5,637.85 514.51,637.849 514.52,637.849C515.244,637.833 515.853,638.41 515.87,639.129C515.87,639.139 515.87,639.15 515.87,639.16L515.87,651.1C515.871,651.375 515.658,651.61 515.38,651.64C511.853,652.007 509.123,652.427 507.19,652.9C500.97,654.42 496.17,659.62 495.75,665.75C495.37,671.31 495.03,683.06 494.73,701Z" style="fill:rgb(206,31,35);fill-rule:nonzero;"/>
    </g>
    <g transform="matrix(1,0,0,1,612.892431,-298.146423)">
        <path d="M370.85,701L366.3,701C353.2,699.76 340.89,691.78 337.56,678.49C334.77,667.31 336.99,653.86 346.18,646.36C349.24,643.867 352.413,641.977 355.7,640.69C365.18,636.99 378.34,637.04 387.03,643.43C390.283,645.817 393.023,648.51 395.25,651.51C395.417,651.733 395.508,652.005 395.508,652.284C395.508,652.774 395.229,653.223 394.79,653.44L384.13,658.73C383.939,658.821 383.709,658.781 383.56,658.63C380.493,655.47 378.277,653.537 376.91,652.83C372.163,650.363 367.107,650.347 361.74,652.78C356.953,654.96 353.97,658.37 352.79,663.01C351.45,668.283 351.683,673.173 353.49,677.68C357.16,686.85 368.2,690.3 376.59,685.56C378.117,684.693 380.407,682.837 383.46,679.99C383.738,679.728 384.156,679.675 384.49,679.86L394.25,685.17C394.635,685.377 394.876,685.781 394.876,686.218C394.876,686.418 394.826,686.615 394.73,686.79C389.61,696.01 381.01,699.87 370.85,701Z" style="fill:rgb(206,31,35);fill-rule:nonzero;"/>
    </g>
    <g transform="matrix(1,0,0,1,612.892431,-298.146423)">
        <path d="M466.39,670.28C466.357,671.693 466.173,674.343 465.84,678.23C465.39,683.53 461.2,689.1 457.37,692.67C447.28,702.08 431.16,702.95 419.21,697.16C407.83,691.65 402.12,681.26 402.41,668.81C402.69,656.36 408.88,646.25 420.5,641.27C432.7,636.03 448.76,637.64 458.41,647.51C462.07,651.25 466,657 466.2,662.32C466.353,666.22 466.417,668.873 466.39,670.28ZM418.03,670.63C418.74,680.87 425.17,688.38 436.02,687.63C446.87,686.88 452.2,678.55 451.49,668.3C450.78,658.06 444.35,650.55 433.5,651.3C422.65,652.05 417.32,660.38 418.03,670.63Z" style="fill:rgb(206,31,35);fill-rule:nonzero;"/>
    </g>
    <g transform="matrix(1,0,0,1,612.892431,-298.146423)">
        <path d="M584,665.88L584,673.86C570.167,673.793 556.333,673.847 542.5,674.02C541.08,674.04 539.953,674.223 539.12,674.57C539.096,674.58 539.072,674.591 539.049,674.602C538.203,675.007 537.838,676.033 538.241,676.874C538.254,676.9 538.266,676.925 538.28,676.95C543.313,686.277 551.297,689.64 562.23,687.04C565.643,686.227 568.977,684.9 572.23,683.06C572.626,682.833 573.129,682.913 573.43,683.25L580.1,690.65C580.303,690.877 580.289,691.229 580.07,691.44C575.23,695.99 569.92,699.58 563.09,700.33C555.523,701.163 549.2,700.76 544.12,699.12C531.19,694.95 522.56,683.45 522.16,669.83C521.91,661.08 525.62,651.29 532.38,645.7C535.42,643.193 539.41,641.04 544.35,639.24C544.755,639.087 545.178,638.983 545.61,638.93C550.903,638.257 556.257,638.223 561.67,638.83C561.922,638.857 562.167,638.91 562.4,638.99C575.24,643.363 582.44,652.327 584,665.88ZM570.08,664.43C568.94,657.66 563.43,650.92 556.63,650.13C548.53,649.18 540.64,652.58 538.06,660.84C537.62,662.24 537.483,663.257 537.65,663.89C537.733,664.185 537.998,664.393 538.3,664.4L569.61,664.98C569.612,664.98 569.615,664.98 569.617,664.98C569.875,664.98 570.087,664.768 570.087,664.51C570.087,664.483 570.085,664.456 570.08,664.43Z" style="fill:rgb(206,31,35);fill-rule:nonzero;"/>
    </g>
    <g transform="matrix(1,0,0,1,612.892431,-298.146423)">
        <path d="M39.69,640.24C39.69,640.24 39.69,649.43 39.69,649.43C39.69,649.435 39.69,649.44 39.69,649.445C39.682,649.681 39.486,649.868 39.256,649.861C39.25,649.861 39.245,649.86 39.24,649.86C31.14,649.33 21.29,653.51 19.18,662.15C18.88,663.37 18.703,665.447 18.65,668.38C18.39,684.193 18.253,694.627 18.24,699.68C18.24,700.152 17.852,700.54 17.38,700.54L8.9,700.54C8.373,700.541 7.904,700.194 7.75,699.69C7.243,698.03 6.983,696.053 6.97,693.76C6.863,672.633 6.947,654.893 7.22,640.54C7.22,640.414 7.324,640.31 7.45,640.31L16.94,640.31C17.077,640.309 17.195,640.413 17.21,640.55L18.13,648.46C18.147,648.6 18.267,648.707 18.408,648.707C18.489,648.707 18.567,648.672 18.62,648.61C23.49,642.55 31.5,639.86 39.15,639.71C39.153,639.71 39.157,639.71 39.16,639.71C39.451,639.71 39.69,639.949 39.69,640.24Z" style="fill:white;fill-rule:nonzero;"/>
    </g>
    <g transform="matrix(1,0,0,1,612.892431,-298.146423)">
        <path d="M58.7,674.65C58.653,674.655 58.606,674.663 58.56,674.675C57.99,674.815 57.637,675.403 57.779,675.979C57.79,676.023 57.804,676.067 57.82,676.11C60.893,684.003 66.35,688.803 74.19,690.51C82.977,692.423 90.31,690.25 96.19,683.99C96.241,683.936 96.312,683.905 96.386,683.905C96.47,683.905 96.549,683.944 96.6,684.01L101.74,690.74C101.832,690.862 101.828,691.033 101.73,691.15C95.72,698.47 87.56,700.55 78.26,700.68C66.58,700.85 57.59,695.41 51.18,686.12C48.707,682.547 47.317,678.517 47.01,674.03C46.18,661.92 49.6,651.22 60.17,644.47C64.197,641.89 69.203,640.383 75.19,639.95C87.48,639.05 98.67,646.16 103.65,657.28C105.73,661.92 106.51,668.33 106.93,673.51C106.93,673.515 106.931,673.521 106.931,673.526C106.938,673.729 106.773,673.902 106.565,673.91C106.56,673.91 106.555,673.91 106.55,673.91C91.857,673.75 77.933,673.827 64.78,674.14C63.62,674.173 61.593,674.343 58.7,674.65ZM76.65,665.83C81.297,665.837 85.913,665.753 90.5,665.58C92.433,665.507 93.93,665.223 94.99,664.73C95.344,664.561 95.533,664.166 95.44,663.79C93.13,654.32 86.22,649.06 76.66,649.06C67.1,649.06 60.17,654.3 57.86,663.77C57.767,664.146 57.956,664.541 58.31,664.71C59.37,665.203 60.867,665.49 62.8,665.57C67.38,665.743 71.997,665.83 76.65,665.83Z" style="fill:white;fill-rule:nonzero;"/>
    </g>
    <g transform="matrix(1,0,0,1,612.892431,-298.146423)">
        <path d="M131.53,701L130.26,701C128.073,700.913 125.897,700.783 123.73,700.61C122.29,700.497 121.507,699.733 121.38,698.32C121.2,696.253 121.1,694.647 121.08,693.5C120.913,682.933 120.957,665.78 121.21,642.04C121.221,641.066 122.021,640.27 122.99,640.27L129.95,640.27C130.85,640.27 131.59,641.01 131.59,641.91L131.59,647.05C131.594,647.305 131.805,647.512 132.06,647.512C132.148,647.512 132.235,647.487 132.31,647.44C135.89,645.113 137.957,643.81 138.51,643.53C148.497,638.457 158.23,638.643 167.71,644.09C168.095,644.309 168.454,644.574 168.78,644.88C171.613,647.507 173.83,650.703 175.43,654.47C176.463,656.897 177.017,660.743 177.09,666.01C177.277,680.69 177.34,692.02 177.28,700C177.275,700.21 177.105,700.38 176.9,700.38L167.7,700.38C167.435,700.38 167.215,700.165 167.21,699.9C167.043,688.913 166.733,678.363 166.28,668.25C166.12,664.82 165.55,658.85 164.04,656.25C159.91,649.17 149.26,648.94 142.36,651.09C138.227,652.383 135.3,655.133 133.58,659.34C133.447,659.665 133.356,660.005 133.31,660.35C132.96,663.29 132.39,666.59 132.29,669.77C131.963,680.183 131.71,690.593 131.53,701Z" style="fill:white;fill-rule:nonzero;"/>
    </g>
    <g transform="matrix(1,0,0,1,612.892431,-298.146423)">
        <path d="M280.2,664.74C280.14,656.76 276.84,651.79 270.3,649.83C261.55,647.21 252.05,651.98 244.9,654.57C244.512,654.705 244.081,654.533 243.9,654.17L241.14,648.6C240.868,648.051 241.048,647.376 241.56,647.03C245.82,644.13 250.033,642.107 254.2,640.96C254.386,640.907 254.581,640.873 254.78,640.86C261.027,640.26 267.603,640.233 274.51,640.78C274.822,640.8 275.128,640.864 275.42,640.97C282.32,643.33 289.71,650.09 289.96,658.07C290.267,668.037 290.397,681.573 290.35,698.68C290.35,699.635 289.565,700.42 288.61,700.42L283.38,700.39C282.347,700.383 281.456,699.636 281.27,698.62L280.58,694.92C280.494,694.446 280.078,694.098 279.596,694.098C279.321,694.098 279.059,694.211 278.87,694.41C276.81,696.577 274.623,698.027 272.31,698.76C263.15,701.66 253.1,701.84 245.27,695.97C236.36,689.3 236.97,675.97 245.66,669.37C247.753,667.79 249.983,666.887 252.35,666.66C257.19,666.2 266.277,665.763 279.61,665.35C279.937,665.339 280.2,665.067 280.2,664.74ZM280.07,673.83C267.797,673.83 260.36,673.977 257.76,674.27C254.447,674.637 251.85,676.633 249.97,680.26C249.818,680.564 249.723,680.889 249.69,681.22C248.65,691.12 258.97,694.04 266.81,692.33C271.09,691.39 274.663,689.323 277.53,686.13C277.796,685.831 278.021,685.498 278.2,685.14C279.647,682.14 280.467,678.577 280.66,674.45C280.661,674.44 280.661,674.43 280.661,674.42C280.661,674.096 280.394,673.83 280.071,673.83C280.071,673.83 280.07,673.83 280.07,673.83Z" style="fill:white;fill-rule:nonzero;"/>
    </g>
</svg>
